<svg width="48" height="39" viewBox="0 0 48 39" fill="none" xmlns="http://www.w3.org/2000/svg">
<path opacity="0.3" d="M14.14 3.46002H4.22V0.599976H14.14V3.46002ZM31.28 14.78C28.03 14.78 25.38 17.43 25.38 20.68C25.38 23.93 28.03 26.58 31.28 26.58C34.53 26.58 37.18 23.93 37.18 20.68C37.18 17.43 34.53 14.78 31.28 14.78ZM47.87 4.94V38.39H0.649994V4.94H47.87ZM41.12 20.68C41.12 15.25 36.71 10.84 31.28 10.84C25.85 10.84 21.44 15.25 21.44 20.68C21.44 26.11 25.85 30.52 31.28 30.52C36.71 30.52 41.12 26.12 41.12 20.68Z" fill="#010101"/>
</svg>
