<svg width="79" height="44" viewBox="0 0 79 44" fill="none" xmlns="http://www.w3.org/2000/svg">
<g opacity="0.3">
<path d="M78.2199 38.34C78.2199 30.18 71.1299 23.56 62.3899 23.56C53.6499 23.56 46.5599 30.18 46.5599 38.34H78.2199Z" fill="black"/>
<path d="M62.3999 25.78C67.0336 25.78 70.7899 22.0237 70.7899 17.39C70.7899 12.7563 67.0336 9 62.3999 9C57.7662 9 54.0099 12.7563 54.0099 17.39C54.0099 22.0237 57.7662 25.78 62.3999 25.78Z" fill="black" stroke="white" stroke-width="10" stroke-miterlimit="10"/>
<path d="M62.3999 25.78C67.0336 25.78 70.7899 22.0237 70.7899 17.39C70.7899 12.7563 67.0336 9 62.3999 9C57.7662 9 54.0099 12.7563 54.0099 17.39C54.0099 22.0237 57.7662 25.78 62.3999 25.78Z" fill="black"/>
<path d="M32.01 38.45C32.01 30.29 24.92 23.67 16.18 23.67C7.43997 23.67 0.349976 30.29 0.349976 38.45H32.01Z" fill="black"/>
<path d="M16.1899 25.89C20.8236 25.89 24.5799 22.1337 24.5799 17.5C24.5799 12.8663 20.8236 9.10999 16.1899 9.10999C11.5563 9.10999 7.79993 12.8663 7.79993 17.5C7.79993 22.1337 11.5563 25.89 16.1899 25.89Z" fill="black" stroke="white" stroke-width="10" stroke-miterlimit="10"/>
<path d="M16.1899 25.89C20.8236 25.89 24.5799 22.1337 24.5799 17.5C24.5799 12.8663 20.8236 9.10999 16.1899 9.10999C11.5563 9.10999 7.79993 12.8663 7.79993 17.5C7.79993 22.1337 11.5563 25.89 16.1899 25.89Z" fill="black"/>
<path d="M56.27 38.45C56.27 29.67 48.65 22.55 39.25 22.55C29.85 22.55 22.23 29.67 22.23 38.45H56.27Z" fill="black"/>
<path d="M39.25 24.94C44.2371 24.94 48.28 20.8971 48.28 15.91C48.28 10.9228 44.2371 6.88 39.25 6.88C34.2628 6.88 30.22 10.9228 30.22 15.91C30.22 20.8971 34.2628 24.94 39.25 24.94Z" fill="black" stroke="white" stroke-width="10" stroke-miterlimit="10"/>
<path d="M39.25 24.94C44.2371 24.94 48.28 20.8971 48.28 15.91C48.28 10.9228 44.2371 6.88 39.25 6.88C34.2628 6.88 30.22 10.9228 30.22 15.91C30.22 20.8971 34.2628 24.94 39.25 24.94Z" fill="black"/>
<path d="M44.42 23.3C46.75 21.67 48.27 18.97 48.27 15.91C48.27 10.93 44.23 6.88 39.24 6.88C34.25 6.88 30.21 10.92 30.21 15.91C30.21 18.97 31.73 21.66 34.06 23.3C27.19 25.35 22.22 31.35 22.22 38.45H56.26C56.27 31.35 51.29 25.35 44.42 23.3Z" fill="black" stroke="white" stroke-width="10" stroke-miterlimit="10"/>
<path d="M56.84 38.45C56.84 29.37 48.96 22.01 39.24 22.01C29.52 22.01 21.64 29.37 21.64 38.45H56.84Z" fill="black"/>
<path d="M39.25 24.48C44.4029 24.48 48.58 20.3028 48.58 15.15C48.58 9.99721 44.4029 5.82001 39.25 5.82001C34.0972 5.82001 29.92 9.99721 29.92 15.15C29.92 20.3028 34.0972 24.48 39.25 24.48Z" fill="black" stroke="white" stroke-width="10" stroke-miterlimit="10"/>
<path d="M39.25 24.48C44.4029 24.48 48.58 20.3028 48.58 15.15C48.58 9.99721 44.4029 5.82001 39.25 5.82001C34.0972 5.82001 29.92 9.99721 29.92 15.15C29.92 20.3028 34.0972 24.48 39.25 24.48Z" fill="black"/>
</g>
</svg>
