<svg width="66" height="50" viewBox="0 0 66 50" fill="none" xmlns="http://www.w3.org/2000/svg">
<g filter="url(#filter0_d)">
<path d="M57.9701 7.85999H8.1701C6.05011 7.85999 4.34009 6.14003 4.34009 4.03003C4.34009 1.91003 6.06011 0.200012 8.1701 0.200012H57.9701C60.0901 0.200012 61.8001 1.92003 61.8001 4.03003C61.8001 6.14003 60.0901 7.85999 57.9701 7.85999Z" fill="black"/>
<path d="M57.9701 24.54H8.1701C6.05011 24.54 4.34009 22.82 4.34009 20.71C4.34009 18.59 6.06011 16.88 8.1701 16.88H57.9701C60.0901 16.88 61.8001 18.6 61.8001 20.71C61.8001 22.83 60.0901 24.54 57.9701 24.54Z" fill="black"/>
<path d="M57.9701 41.23H8.1701C6.05011 41.23 4.34009 39.51 4.34009 37.4C4.34009 35.28 6.06011 33.57 8.1701 33.57H57.9701C60.0901 33.57 61.8001 35.29 61.8001 37.4C61.8001 39.51 60.0901 41.23 57.9701 41.23Z" fill="black"/>
</g>
<defs>
<filter id="filter0_d" x="0.340088" y="0.200012" width="65.46" height="49.03" filterUnits="userSpaceOnUse" color-interpolation-filters="sRGB">
<feFlood flood-opacity="0" result="BackgroundImageFix"/>
<feColorMatrix in="SourceAlpha" type="matrix" values="0 0 0 0 0 0 0 0 0 0 0 0 0 0 0 0 0 0 127 0"/>
<feOffset dy="4"/>
<feGaussianBlur stdDeviation="2"/>
<feColorMatrix type="matrix" values="0 0 0 0 0 0 0 0 0 0 0 0 0 0 0 0 0 0 0.25 0"/>
<feBlend mode="normal" in2="BackgroundImageFix" result="effect1_dropShadow"/>
<feBlend mode="normal" in="SourceGraphic" in2="effect1_dropShadow" result="shape"/>
</filter>
</defs>
</svg>
