<svg width="78" height="33" viewBox="0 0 78 33" fill="none" xmlns="http://www.w3.org/2000/svg">
<g clip-path="url(#clip0)">
<path d="M49.16 19.3C46.55 21.98 42.92 23.66 38.89 23.66C34.86 23.66 31.22 21.98 28.62 19.3C24.19 22.28 21.3 27.1301 21.3 32.6301H56.49C56.48 27.1401 53.59 22.29 49.16 19.3Z" fill="black"/>
<path d="M38.89 18.66C44.0428 18.66 48.22 14.4828 48.22 9.33C48.22 4.17718 44.0428 0 38.89 0C33.7372 0 29.56 4.17718 29.56 9.33C29.56 14.4828 33.7372 18.66 38.89 18.66Z" fill="black"/>
<path d="M62.04 19.9601C66.6737 19.9601 70.43 16.2037 70.43 11.5701C70.43 6.93638 66.6737 3.18005 62.04 3.18005C57.4064 3.18005 53.65 6.93638 53.65 11.5701C53.65 16.2037 57.4064 19.9601 62.04 19.9601Z" fill="black"/>
<path d="M15.83 19.9601C20.4637 19.9601 24.22 16.2037 24.22 11.5701C24.22 6.93638 20.4637 3.18005 15.83 3.18005C11.1963 3.18005 7.44 6.93638 7.44 11.5701C7.44 16.2037 11.1963 19.9601 15.83 19.9601Z" fill="black"/>
<path d="M18.51 24.68C17.64 24.86 16.75 24.96 15.83 24.96C12.04 24.96 8.62 23.37 6.18 20.83C2.42 23.53 0 27.76 0 32.52H16.87C16.88 29.76 17.46 27.12 18.51 24.68Z" fill="black"/>
<path d="M60.9 32.5199H77.86C77.86 27.7499 75.44 23.5299 71.69 20.8199C69.25 23.3599 65.83 24.9499 62.04 24.9499C61.08 24.9499 60.15 24.8499 59.26 24.6599C60.31 27.0999 60.89 29.7599 60.9 32.5199Z" fill="black"/>
</g>
<defs>
<clipPath id="clip0">
<rect width="77.86" height="32.63" fill="white"/>
</clipPath>
</defs>
</svg>
