<svg width="69" height="65" viewBox="0 0 69 65" fill="none" xmlns="http://www.w3.org/2000/svg">
<path d="M8.42386 58.375H2.84386L1.68886 61H0.143855L4.89886 50.5H6.38386L11.1539 61H9.57886L8.42386 58.375ZM7.89886 57.175L5.63386 52.03L3.36886 57.175H7.89886ZM19.6036 49.87V61H18.2236V59.74C17.9036 60.18 17.4986 60.515 17.0086 60.745C16.5186 60.975 15.9786 61.09 15.3886 61.09C14.6186 61.09 13.9286 60.92 13.3186 60.58C12.7086 60.24 12.2286 59.765 11.8786 59.155C11.5386 58.535 11.3686 57.825 11.3686 57.025C11.3686 56.225 11.5386 55.52 11.8786 54.91C12.2286 54.3 12.7086 53.825 13.3186 53.485C13.9286 53.145 14.6186 52.975 15.3886 52.975C15.9586 52.975 16.4836 53.085 16.9636 53.305C17.4436 53.515 17.8436 53.83 18.1636 54.25V49.87H19.6036ZM15.5086 59.83C16.0086 59.83 16.4636 59.715 16.8736 59.485C17.2836 59.245 17.6036 58.915 17.8336 58.495C18.0636 58.065 18.1786 57.575 18.1786 57.025C18.1786 56.475 18.0636 55.99 17.8336 55.57C17.6036 55.14 17.2836 54.81 16.8736 54.58C16.4636 54.35 16.0086 54.235 15.5086 54.235C14.9986 54.235 14.5386 54.35 14.1286 54.58C13.7286 54.81 13.4086 55.14 13.1686 55.57C12.9386 55.99 12.8236 56.475 12.8236 57.025C12.8236 57.575 12.9386 58.065 13.1686 58.495C13.4086 58.915 13.7286 59.245 14.1286 59.485C14.5386 59.715 14.9986 59.83 15.5086 59.83ZM29.4949 49.87V61H28.1149V59.74C27.7949 60.18 27.3899 60.515 26.8999 60.745C26.4099 60.975 25.8699 61.09 25.2799 61.09C24.5099 61.09 23.8199 60.92 23.2099 60.58C22.5999 60.24 22.1199 59.765 21.7699 59.155C21.4299 58.535 21.2599 57.825 21.2599 57.025C21.2599 56.225 21.4299 55.52 21.7699 54.91C22.1199 54.3 22.5999 53.825 23.2099 53.485C23.8199 53.145 24.5099 52.975 25.2799 52.975C25.8499 52.975 26.3749 53.085 26.8549 53.305C27.3349 53.515 27.7349 53.83 28.0549 54.25V49.87H29.4949ZM25.3999 59.83C25.8999 59.83 26.3549 59.715 26.7649 59.485C27.1749 59.245 27.4949 58.915 27.7249 58.495C27.9549 58.065 28.0699 57.575 28.0699 57.025C28.0699 56.475 27.9549 55.99 27.7249 55.57C27.4949 55.14 27.1749 54.81 26.7649 54.58C26.3549 54.35 25.8999 54.235 25.3999 54.235C24.8899 54.235 24.4299 54.35 24.0199 54.58C23.6199 54.81 23.2999 55.14 23.0599 55.57C22.8299 55.99 22.7149 56.475 22.7149 57.025C22.7149 57.575 22.8299 58.065 23.0599 58.495C23.2999 58.915 23.6199 59.245 24.0199 59.485C24.4299 59.715 24.8899 59.83 25.3999 59.83ZM35.7911 50.5H37.2911V61H35.7911V50.5ZM44.3614 60.535C44.1514 60.715 43.8914 60.855 43.5814 60.955C43.2714 61.045 42.9514 61.09 42.6214 61.09C41.8214 61.09 41.2014 60.875 40.7614 60.445C40.3214 60.015 40.1014 59.4 40.1014 58.6V54.235H38.7514V53.05H40.1014V51.31H41.5414V53.05H43.8214V54.235H41.5414V58.54C41.5414 58.97 41.6464 59.3 41.8564 59.53C42.0764 59.76 42.3864 59.875 42.7864 59.875C43.2264 59.875 43.6014 59.75 43.9114 59.5L44.3614 60.535ZM52.6903 57.07C52.6903 57.18 52.6803 57.325 52.6603 57.505H46.2103C46.3003 58.205 46.6053 58.77 47.1253 59.2C47.6553 59.62 48.3103 59.83 49.0903 59.83C50.0403 59.83 50.8053 59.51 51.3853 58.87L52.1803 59.8C51.8203 60.22 51.3703 60.54 50.8303 60.76C50.3003 60.98 49.7053 61.09 49.0453 61.09C48.2053 61.09 47.4603 60.92 46.8103 60.58C46.1603 60.23 45.6553 59.745 45.2953 59.125C44.9453 58.505 44.7703 57.805 44.7703 57.025C44.7703 56.255 44.9403 55.56 45.2803 54.94C45.6303 54.32 46.1053 53.84 46.7053 53.5C47.3153 53.15 48.0003 52.975 48.7603 52.975C49.5203 52.975 50.1953 53.15 50.7853 53.5C51.3853 53.84 51.8503 54.32 52.1803 54.94C52.5203 55.56 52.6903 56.27 52.6903 57.07ZM48.7603 54.19C48.0703 54.19 47.4903 54.4 47.0203 54.82C46.5603 55.24 46.2903 55.79 46.2103 56.47H51.3103C51.2303 55.8 50.9553 55.255 50.4853 54.835C50.0253 54.405 49.4503 54.19 48.7603 54.19ZM64.3015 52.975C65.3015 52.975 66.0915 53.265 66.6715 53.845C67.2615 54.425 67.5565 55.285 67.5565 56.425V61H66.1165V56.59C66.1165 55.82 65.9365 55.24 65.5765 54.85C65.2265 54.46 64.7215 54.265 64.0615 54.265C63.3315 54.265 62.7515 54.495 62.3215 54.955C61.8915 55.405 61.6765 56.055 61.6765 56.905V61H60.2365V56.59C60.2365 55.82 60.0565 55.24 59.6965 54.85C59.3465 54.46 58.8415 54.265 58.1815 54.265C57.4515 54.265 56.8715 54.495 56.4415 54.955C56.0115 55.405 55.7965 56.055 55.7965 56.905V61H54.3565V53.05H55.7365V54.235C56.0265 53.825 56.4065 53.515 56.8765 53.305C57.3465 53.085 57.8815 52.975 58.4815 52.975C59.1015 52.975 59.6515 53.1 60.1315 53.35C60.6115 53.6 60.9815 53.965 61.2415 54.445C61.5415 53.985 61.9565 53.625 62.4865 53.365C63.0265 53.105 63.6315 52.975 64.3015 52.975Z" fill="#74DB97"/>
<path d="M32 36.4005L32 2.59956C32 1.16064 33.5718 -2.37276e-07 35.5 -1.52991e-07C37.4373 -6.83071e-08 39 1.16743 39 2.59956L39 36.4005C39 37.8394 37.4282 39 35.5 39C33.5718 39 32 37.8394 32 36.4005Z" fill="#74DB97"/>
<path d="M18.5995 16L52.4004 16C53.8394 16 55 17.5718 55 19.5C55 21.4373 53.8326 23 52.4004 23L18.5995 23C17.1606 23 16 21.4282 16 19.5C16 17.5718 17.1606 16 18.5995 16Z" fill="#74DB97"/>
</svg>
