<svg width="59" height="62" viewBox="0 0 59 62" fill="none" xmlns="http://www.w3.org/2000/svg">
<g opacity="0.2">
<path d="M19.49 3.46002H9.57001V0.599976H19.49V3.46002ZM36.63 14.78C33.38 14.78 30.73 17.43 30.73 20.68C30.73 23.93 33.38 26.58 36.63 26.58C39.88 26.58 42.53 23.93 42.53 20.68C42.53 17.43 39.88 14.78 36.63 14.78ZM53.22 4.94V38.39H6V4.94H53.22ZM46.47 20.68C46.47 15.25 42.06 10.84 36.63 10.84C31.2 10.84 26.79 15.25 26.79 20.68C26.79 26.11 31.2 30.52 36.63 30.52C42.06 30.52 46.47 26.12 46.47 20.68Z" fill="#010101"/>
<path d="M6.7132 58.12C5.6632 58.12 4.7132 57.89 3.8632 57.43C3.0232 56.96 2.3632 56.32 1.8832 55.51C1.4032 54.69 1.1632 53.77 1.1632 52.75C1.1632 51.73 1.4032 50.815 1.8832 50.005C2.3632 49.185 3.0282 48.545 3.8782 48.085C4.7282 47.615 5.6782 47.38 6.7282 47.38C7.5482 47.38 8.2982 47.52 8.9782 47.8C9.6582 48.07 10.2382 48.475 10.7182 49.015L9.7432 49.96C8.9532 49.13 7.9682 48.715 6.7882 48.715C6.0082 48.715 5.3032 48.89 4.6732 49.24C4.0432 49.59 3.5482 50.075 3.1882 50.695C2.8382 51.305 2.6632 51.99 2.6632 52.75C2.6632 53.51 2.8382 54.2 3.1882 54.82C3.5482 55.43 4.0432 55.91 4.6732 56.26C5.3032 56.61 6.0082 56.785 6.7882 56.785C7.9582 56.785 8.9432 56.365 9.7432 55.525L10.7182 56.47C10.2382 57.01 9.6532 57.42 8.9632 57.7C8.2832 57.98 7.5332 58.12 6.7132 58.12ZM15.1072 49.975C16.2072 49.975 17.0472 50.245 17.6272 50.785C18.2172 51.325 18.5122 52.13 18.5122 53.2V58H17.1472V56.95C16.9072 57.32 16.5622 57.605 16.1122 57.805C15.6722 57.995 15.1472 58.09 14.5372 58.09C13.6472 58.09 12.9322 57.875 12.3922 57.445C11.8622 57.015 11.5972 56.45 11.5972 55.75C11.5972 55.05 11.8522 54.49 12.3622 54.07C12.8722 53.64 13.6822 53.425 14.7922 53.425H17.0722V53.14C17.0722 52.52 16.8922 52.045 16.5322 51.715C16.1722 51.385 15.6422 51.22 14.9422 51.22C14.4722 51.22 14.0122 51.3 13.5622 51.46C13.1122 51.61 12.7322 51.815 12.4222 52.075L11.8222 50.995C12.2322 50.665 12.7222 50.415 13.2922 50.245C13.8622 50.065 14.4672 49.975 15.1072 49.975ZM14.7772 56.98C15.3272 56.98 15.8022 56.86 16.2022 56.62C16.6022 56.37 16.8922 56.02 17.0722 55.57V54.46H14.8522C13.6322 54.46 13.0222 54.87 13.0222 55.69C13.0222 56.09 13.1772 56.405 13.4872 56.635C13.7972 56.865 14.2272 56.98 14.7772 56.98ZM30.7887 49.975C31.7887 49.975 32.5787 50.265 33.1587 50.845C33.7487 51.425 34.0437 52.285 34.0437 53.425V58H32.6037V53.59C32.6037 52.82 32.4237 52.24 32.0637 51.85C31.7137 51.46 31.2087 51.265 30.5487 51.265C29.8187 51.265 29.2387 51.495 28.8087 51.955C28.3787 52.405 28.1637 53.055 28.1637 53.905V58H26.7237V53.59C26.7237 52.82 26.5437 52.24 26.1837 51.85C25.8337 51.46 25.3287 51.265 24.6687 51.265C23.9387 51.265 23.3587 51.495 22.9287 51.955C22.4987 52.405 22.2837 53.055 22.2837 53.905V58H20.8437V50.05H22.2237V51.235C22.5137 50.825 22.8937 50.515 23.3637 50.305C23.8337 50.085 24.3687 49.975 24.9687 49.975C25.5887 49.975 26.1387 50.1 26.6187 50.35C27.0987 50.6 27.4687 50.965 27.7287 51.445C28.0287 50.985 28.4437 50.625 28.9737 50.365C29.5137 50.105 30.1187 49.975 30.7887 49.975ZM43.5889 54.07C43.5889 54.18 43.5789 54.325 43.5589 54.505H37.1089C37.1989 55.205 37.5039 55.77 38.0239 56.2C38.5539 56.62 39.2089 56.83 39.9889 56.83C40.9389 56.83 41.7039 56.51 42.2839 55.87L43.0789 56.8C42.7189 57.22 42.2689 57.54 41.7289 57.76C41.1989 57.98 40.6039 58.09 39.9439 58.09C39.1039 58.09 38.3589 57.92 37.7089 57.58C37.0589 57.23 36.5539 56.745 36.1939 56.125C35.8439 55.505 35.6689 54.805 35.6689 54.025C35.6689 53.255 35.8389 52.56 36.1789 51.94C36.5289 51.32 37.0039 50.84 37.6039 50.5C38.2139 50.15 38.8989 49.975 39.6589 49.975C40.4189 49.975 41.0939 50.15 41.6839 50.5C42.2839 50.84 42.7489 51.32 43.0789 51.94C43.4189 52.56 43.5889 53.27 43.5889 54.07ZM39.6589 51.19C38.9689 51.19 38.3889 51.4 37.9189 51.82C37.4589 52.24 37.1889 52.79 37.1089 53.47H42.2089C42.1289 52.8 41.8539 52.255 41.3839 51.835C40.9239 51.405 40.3489 51.19 39.6589 51.19ZM46.6351 51.385C46.8851 50.925 47.2551 50.575 47.7451 50.335C48.2351 50.095 48.8301 49.975 49.5301 49.975V51.37C49.4501 51.36 49.3401 51.355 49.2001 51.355C48.4201 51.355 47.8051 51.59 47.3551 52.06C46.9151 52.52 46.6951 53.18 46.6951 54.04V58H45.2551V50.05H46.6351V51.385ZM53.852 49.975C54.952 49.975 55.792 50.245 56.372 50.785C56.962 51.325 57.257 52.13 57.257 53.2V58H55.892V56.95C55.652 57.32 55.307 57.605 54.857 57.805C54.417 57.995 53.892 58.09 53.282 58.09C52.392 58.09 51.677 57.875 51.137 57.445C50.607 57.015 50.342 56.45 50.342 55.75C50.342 55.05 50.597 54.49 51.107 54.07C51.617 53.64 52.427 53.425 53.537 53.425H55.817V53.14C55.817 52.52 55.637 52.045 55.277 51.715C54.917 51.385 54.387 51.22 53.687 51.22C53.217 51.22 52.757 51.3 52.307 51.46C51.857 51.61 51.477 51.815 51.167 52.075L50.567 50.995C50.977 50.665 51.467 50.415 52.037 50.245C52.607 50.065 53.212 49.975 53.852 49.975ZM53.522 56.98C54.072 56.98 54.547 56.86 54.947 56.62C55.347 56.37 55.637 56.02 55.817 55.57V54.46H53.597C52.377 54.46 51.767 54.87 51.767 55.69C51.767 56.09 51.922 56.405 52.232 56.635C52.542 56.865 52.972 56.98 53.522 56.98Z" fill="black"/>
</g>
</svg>
