<svg width="59" height="62" viewBox="0 0 59 62" fill="none" xmlns="http://www.w3.org/2000/svg">
<path d="M19.49 3.26001H9.57001V0.399963H19.49V3.26001ZM36.63 14.58C33.38 14.58 30.73 17.23 30.73 20.48C30.73 23.73 33.38 26.38 36.63 26.38C39.88 26.38 42.53 23.73 42.53 20.48C42.53 17.23 39.88 14.58 36.63 14.58ZM53.22 4.73999V38.19H6V4.73999H53.22ZM46.47 20.48C46.47 15.05 42.06 10.64 36.63 10.64C31.2 10.64 26.79 15.05 26.79 20.48C26.79 25.91 31.2 30.32 36.63 30.32C42.06 30.32 46.47 25.92 46.47 20.48Z" fill="#74DB97"/>
<path d="M6.7132 57.92C5.6632 57.92 4.7132 57.69 3.8632 57.23C3.0232 56.76 2.3632 56.12 1.8832 55.31C1.4032 54.49 1.1632 53.57 1.1632 52.55C1.1632 51.53 1.4032 50.615 1.8832 49.805C2.3632 48.985 3.0282 48.345 3.8782 47.885C4.7282 47.415 5.6782 47.18 6.7282 47.18C7.5482 47.18 8.2982 47.32 8.9782 47.6C9.6582 47.87 10.2382 48.275 10.7182 48.815L9.7432 49.76C8.9532 48.93 7.9682 48.515 6.7882 48.515C6.0082 48.515 5.3032 48.69 4.6732 49.04C4.0432 49.39 3.5482 49.875 3.1882 50.495C2.8382 51.105 2.6632 51.79 2.6632 52.55C2.6632 53.31 2.8382 54 3.1882 54.62C3.5482 55.23 4.0432 55.71 4.6732 56.06C5.3032 56.41 6.0082 56.585 6.7882 56.585C7.9582 56.585 8.9432 56.165 9.7432 55.325L10.7182 56.27C10.2382 56.81 9.6532 57.22 8.9632 57.5C8.2832 57.78 7.5332 57.92 6.7132 57.92ZM15.1072 49.775C16.2072 49.775 17.0472 50.045 17.6272 50.585C18.2172 51.125 18.5122 51.93 18.5122 53V57.8H17.1472V56.75C16.9072 57.12 16.5622 57.405 16.1122 57.605C15.6722 57.795 15.1472 57.89 14.5372 57.89C13.6472 57.89 12.9322 57.675 12.3922 57.245C11.8622 56.815 11.5972 56.25 11.5972 55.55C11.5972 54.85 11.8522 54.29 12.3622 53.87C12.8722 53.44 13.6822 53.225 14.7922 53.225H17.0722V52.94C17.0722 52.32 16.8922 51.845 16.5322 51.515C16.1722 51.185 15.6422 51.02 14.9422 51.02C14.4722 51.02 14.0122 51.1 13.5622 51.26C13.1122 51.41 12.7322 51.615 12.4222 51.875L11.8222 50.795C12.2322 50.465 12.7222 50.215 13.2922 50.045C13.8622 49.865 14.4672 49.775 15.1072 49.775ZM14.7772 56.78C15.3272 56.78 15.8022 56.66 16.2022 56.42C16.6022 56.17 16.8922 55.82 17.0722 55.37V54.26H14.8522C13.6322 54.26 13.0222 54.67 13.0222 55.49C13.0222 55.89 13.1772 56.205 13.4872 56.435C13.7972 56.665 14.2272 56.78 14.7772 56.78ZM30.7887 49.775C31.7887 49.775 32.5787 50.065 33.1587 50.645C33.7487 51.225 34.0437 52.085 34.0437 53.225V57.8H32.6037V53.39C32.6037 52.62 32.4237 52.04 32.0637 51.65C31.7137 51.26 31.2087 51.065 30.5487 51.065C29.8187 51.065 29.2387 51.295 28.8087 51.755C28.3787 52.205 28.1637 52.855 28.1637 53.705V57.8H26.7237V53.39C26.7237 52.62 26.5437 52.04 26.1837 51.65C25.8337 51.26 25.3287 51.065 24.6687 51.065C23.9387 51.065 23.3587 51.295 22.9287 51.755C22.4987 52.205 22.2837 52.855 22.2837 53.705V57.8H20.8437V49.85H22.2237V51.035C22.5137 50.625 22.8937 50.315 23.3637 50.105C23.8337 49.885 24.3687 49.775 24.9687 49.775C25.5887 49.775 26.1387 49.9 26.6187 50.15C27.0987 50.4 27.4687 50.765 27.7287 51.245C28.0287 50.785 28.4437 50.425 28.9737 50.165C29.5137 49.905 30.1187 49.775 30.7887 49.775ZM43.5889 53.87C43.5889 53.98 43.5789 54.125 43.5589 54.305H37.1089C37.1989 55.005 37.5039 55.57 38.0239 56C38.5539 56.42 39.2089 56.63 39.9889 56.63C40.9389 56.63 41.7039 56.31 42.2839 55.67L43.0789 56.6C42.7189 57.02 42.2689 57.34 41.7289 57.56C41.1989 57.78 40.6039 57.89 39.9439 57.89C39.1039 57.89 38.3589 57.72 37.7089 57.38C37.0589 57.03 36.5539 56.545 36.1939 55.925C35.8439 55.305 35.6689 54.605 35.6689 53.825C35.6689 53.055 35.8389 52.36 36.1789 51.74C36.5289 51.12 37.0039 50.64 37.6039 50.3C38.2139 49.95 38.8989 49.775 39.6589 49.775C40.4189 49.775 41.0939 49.95 41.6839 50.3C42.2839 50.64 42.7489 51.12 43.0789 51.74C43.4189 52.36 43.5889 53.07 43.5889 53.87ZM39.6589 50.99C38.9689 50.99 38.3889 51.2 37.9189 51.62C37.4589 52.04 37.1889 52.59 37.1089 53.27H42.2089C42.1289 52.6 41.8539 52.055 41.3839 51.635C40.9239 51.205 40.3489 50.99 39.6589 50.99ZM46.6351 51.185C46.8851 50.725 47.2551 50.375 47.7451 50.135C48.2351 49.895 48.8301 49.775 49.5301 49.775V51.17C49.4501 51.16 49.3401 51.155 49.2001 51.155C48.4201 51.155 47.8051 51.39 47.3551 51.86C46.9151 52.32 46.6951 52.98 46.6951 53.84V57.8H45.2551V49.85H46.6351V51.185ZM53.852 49.775C54.952 49.775 55.792 50.045 56.372 50.585C56.962 51.125 57.257 51.93 57.257 53V57.8H55.892V56.75C55.652 57.12 55.307 57.405 54.857 57.605C54.417 57.795 53.892 57.89 53.282 57.89C52.392 57.89 51.677 57.675 51.137 57.245C50.607 56.815 50.342 56.25 50.342 55.55C50.342 54.85 50.597 54.29 51.107 53.87C51.617 53.44 52.427 53.225 53.537 53.225H55.817V52.94C55.817 52.32 55.637 51.845 55.277 51.515C54.917 51.185 54.387 51.02 53.687 51.02C53.217 51.02 52.757 51.1 52.307 51.26C51.857 51.41 51.477 51.615 51.167 51.875L50.567 50.795C50.977 50.465 51.467 50.215 52.037 50.045C52.607 49.865 53.212 49.775 53.852 49.775ZM53.522 56.78C54.072 56.78 54.547 56.66 54.947 56.42C55.347 56.17 55.637 55.82 55.817 55.37V54.26H53.597C52.377 54.26 51.767 54.67 51.767 55.49C51.767 55.89 51.922 56.205 52.232 56.435C52.542 56.665 52.972 56.78 53.522 56.78Z" fill="#74DB97"/>
</svg>
