<svg width="44" height="38" viewBox="0 0 44 38" fill="none" xmlns="http://www.w3.org/2000/svg">
<path d="M12.1689 37.08C11.4689 37.08 10.8356 36.9267 10.2689 36.62C9.70893 36.3067 9.26893 35.88 8.94893 35.34C8.62893 34.7933 8.46893 34.18 8.46893 33.5C8.46893 32.82 8.62893 32.21 8.94893 31.67C9.26893 31.1233 9.71227 30.6967 10.2789 30.39C10.8456 30.0767 11.4789 29.92 12.1789 29.92C12.7256 29.92 13.2256 30.0133 13.6789 30.2C14.1323 30.38 14.5189 30.65 14.8389 31.01L14.1889 31.64C13.6623 31.0867 13.0056 30.81 12.2189 30.81C11.6989 30.81 11.2289 30.9267 10.8089 31.16C10.3889 31.3933 10.0589 31.7167 9.81893 32.13C9.5856 32.5367 9.46893 32.9933 9.46893 33.5C9.46893 34.0067 9.5856 34.4667 9.81893 34.88C10.0589 35.2867 10.3889 35.6067 10.8089 35.84C11.2289 36.0733 11.6989 36.19 12.2189 36.19C12.9989 36.19 13.6556 35.91 14.1889 35.35L14.8389 35.98C14.5189 36.34 14.1289 36.6133 13.6689 36.8C13.2156 36.9867 12.7156 37.08 12.1689 37.08ZM15.7922 29.58H16.7522V37H15.7922V29.58ZM20.1818 31.65C20.9151 31.65 21.4751 31.83 21.8618 32.19C22.2551 32.55 22.4518 33.0867 22.4518 33.8V37H21.5418V36.3C21.3818 36.5467 21.1518 36.7367 20.8518 36.87C20.5585 36.9967 20.2085 37.06 19.8018 37.06C19.2085 37.06 18.7318 36.9167 18.3718 36.63C18.0185 36.3433 17.8418 35.9667 17.8418 35.5C17.8418 35.0333 18.0118 34.66 18.3518 34.38C18.6918 34.0933 19.2318 33.95 19.9718 33.95H21.4918V33.76C21.4918 33.3467 21.3718 33.03 21.1318 32.81C20.8918 32.59 20.5385 32.48 20.0718 32.48C19.7585 32.48 19.4518 32.5333 19.1518 32.64C18.8518 32.74 18.5985 32.8767 18.3918 33.05L17.9918 32.33C18.2651 32.11 18.5918 31.9433 18.9718 31.83C19.3518 31.71 19.7551 31.65 20.1818 31.65ZM19.9618 36.32C20.3285 36.32 20.6451 36.24 20.9118 36.08C21.1785 35.9133 21.3718 35.68 21.4918 35.38V34.64H20.0118C19.1985 34.64 18.7918 34.9133 18.7918 35.46C18.7918 35.7267 18.8951 35.9367 19.1018 36.09C19.3085 36.2433 19.5951 36.32 19.9618 36.32ZM23.895 31.7H24.855V37H23.895V31.7ZM24.375 30.68C24.1884 30.68 24.0317 30.62 23.905 30.5C23.785 30.38 23.725 30.2333 23.725 30.06C23.725 29.8867 23.785 29.74 23.905 29.62C24.0317 29.4933 24.1884 29.43 24.375 29.43C24.5617 29.43 24.715 29.49 24.835 29.61C24.9617 29.7233 25.025 29.8667 25.025 30.04C25.025 30.22 24.9617 30.3733 24.835 30.5C24.715 30.62 24.5617 30.68 24.375 30.68ZM32.9847 31.65C33.6513 31.65 34.178 31.8433 34.5647 32.23C34.958 32.6167 35.1547 33.19 35.1547 33.95V37H34.1947V34.06C34.1947 33.5467 34.0747 33.16 33.8347 32.9C33.6013 32.64 33.2647 32.51 32.8247 32.51C32.338 32.51 31.9513 32.6633 31.6647 32.97C31.378 33.27 31.2347 33.7033 31.2347 34.27V37H30.2747V34.06C30.2747 33.5467 30.1547 33.16 29.9147 32.9C29.6813 32.64 29.3447 32.51 28.9047 32.51C28.418 32.51 28.0313 32.6633 27.7447 32.97C27.458 33.27 27.3147 33.7033 27.3147 34.27V37H26.3547V31.7H27.2747V32.49C27.468 32.2167 27.7213 32.01 28.0347 31.87C28.348 31.7233 28.7047 31.65 29.1047 31.65C29.518 31.65 29.8847 31.7333 30.2047 31.9C30.5247 32.0667 30.7713 32.31 30.9447 32.63C31.1447 32.3233 31.4213 32.0833 31.7747 31.91C32.1347 31.7367 32.538 31.65 32.9847 31.65Z" fill="#74DB97"/>
<path d="M28.89 13.8109C27.1229 15.5666 24.6924 16.6589 22.0103 16.6589C19.3282 16.6589 16.8977 15.5723 15.1306 13.8109C11.4534 15.9555 9 19.7699 9 24.122H35.0206C35.0206 19.7699 32.573 15.9555 28.89 13.8109Z" fill="#74DB97"/>
<path d="M22.0101 13.7938C25.8191 13.7938 28.9069 10.7059 28.9069 6.89689C28.9069 3.08784 25.8191 0 22.0101 0C18.201 0 15.1132 3.08784 15.1132 6.89689C15.1132 10.7059 18.201 13.7938 22.0101 13.7938Z" fill="#74DB97"/>
</svg>
