<svg width="90" height="63" viewBox="0 0 90 63" fill="none" xmlns="http://www.w3.org/2000/svg">
<path d="M23.0299 58.92C22.2399 58.92 21.4749 58.8 20.7349 58.56C20.0049 58.31 19.4299 57.99 19.0099 57.6L19.5649 56.43C19.9649 56.79 20.4749 57.085 21.0949 57.315C21.7249 57.535 22.3699 57.645 23.0299 57.645C23.8999 57.645 24.5499 57.5 24.9799 57.21C25.4099 56.91 25.6249 56.515 25.6249 56.025C25.6249 55.665 25.5049 55.375 25.2649 55.155C25.0349 54.925 24.7449 54.75 24.3949 54.63C24.0549 54.51 23.5699 54.375 22.9399 54.225C22.1499 54.035 21.5099 53.845 21.0199 53.655C20.5399 53.465 20.1249 53.175 19.7749 52.785C19.4349 52.385 19.2649 51.85 19.2649 51.18C19.2649 50.62 19.4099 50.115 19.6999 49.665C19.9999 49.215 20.4499 48.855 21.0499 48.585C21.6499 48.315 22.3949 48.18 23.2849 48.18C23.9049 48.18 24.5149 48.26 25.1149 48.42C25.7149 48.58 26.2299 48.81 26.6599 49.11L26.1649 50.31C25.7249 50.03 25.2549 49.82 24.7549 49.68C24.2549 49.53 23.7649 49.455 23.2849 49.455C22.4349 49.455 21.7949 49.61 21.3649 49.92C20.9449 50.23 20.7349 50.63 20.7349 51.12C20.7349 51.48 20.8549 51.775 21.0949 52.005C21.3349 52.225 21.6299 52.4 21.9799 52.53C22.3399 52.65 22.8249 52.78 23.4349 52.92C24.2249 53.11 24.8599 53.3 25.3399 53.49C25.8199 53.68 26.2299 53.97 26.5699 54.36C26.9199 54.75 27.0949 55.275 27.0949 55.935C27.0949 56.485 26.9449 56.99 26.6449 57.45C26.3449 57.9 25.8899 58.26 25.2799 58.53C24.6699 58.79 23.9199 58.92 23.0299 58.92ZM32.9879 50.775C33.9979 50.775 34.7979 51.07 35.3879 51.66C35.9879 52.24 36.2879 53.095 36.2879 54.225V58.8H34.8479V54.39C34.8479 53.62 34.6629 53.04 34.2929 52.65C33.9229 52.26 33.3929 52.065 32.7029 52.065C31.9229 52.065 31.3079 52.295 30.8579 52.755C30.4079 53.205 30.1829 53.855 30.1829 54.705V58.8H28.7429V47.67H30.1829V51.975C30.4829 51.595 30.8729 51.3 31.3529 51.09C31.8429 50.88 32.3879 50.775 32.9879 50.775ZM41.5146 50.775C42.6146 50.775 43.4546 51.045 44.0346 51.585C44.6246 52.125 44.9196 52.93 44.9196 54V58.8H43.5546V57.75C43.3146 58.12 42.9696 58.405 42.5196 58.605C42.0796 58.795 41.5546 58.89 40.9446 58.89C40.0546 58.89 39.3396 58.675 38.7996 58.245C38.2696 57.815 38.0046 57.25 38.0046 56.55C38.0046 55.85 38.2596 55.29 38.7696 54.87C39.2796 54.44 40.0896 54.225 41.1996 54.225H43.4796V53.94C43.4796 53.32 43.2996 52.845 42.9396 52.515C42.5796 52.185 42.0496 52.02 41.3496 52.02C40.8796 52.02 40.4196 52.1 39.9696 52.26C39.5196 52.41 39.1396 52.615 38.8296 52.875L38.2296 51.795C38.6396 51.465 39.1296 51.215 39.6996 51.045C40.2696 50.865 40.8746 50.775 41.5146 50.775ZM41.1846 57.78C41.7346 57.78 42.2096 57.66 42.6096 57.42C43.0096 57.17 43.2996 56.82 43.4796 56.37V55.26H41.2596C40.0396 55.26 39.4296 55.67 39.4296 56.49C39.4296 56.89 39.5846 57.205 39.8946 57.435C40.2046 57.665 40.6346 57.78 41.1846 57.78ZM48.6311 52.185C48.8811 51.725 49.2511 51.375 49.7411 51.135C50.2311 50.895 50.8261 50.775 51.5261 50.775V52.17C51.4461 52.16 51.3361 52.155 51.1961 52.155C50.4161 52.155 49.8011 52.39 49.3511 52.86C48.9111 53.32 48.6911 53.98 48.6911 54.84V58.8H47.2511V50.85H48.6311V52.185ZM60.0793 54.87C60.0793 54.98 60.0693 55.125 60.0493 55.305H53.5993C53.6893 56.005 53.9943 56.57 54.5143 57C55.0443 57.42 55.6993 57.63 56.4793 57.63C57.4293 57.63 58.1943 57.31 58.7743 56.67L59.5693 57.6C59.2093 58.02 58.7593 58.34 58.2193 58.56C57.6893 58.78 57.0943 58.89 56.4343 58.89C55.5943 58.89 54.8493 58.72 54.1993 58.38C53.5493 58.03 53.0443 57.545 52.6843 56.925C52.3343 56.305 52.1593 55.605 52.1593 54.825C52.1593 54.055 52.3293 53.36 52.6693 52.74C53.0193 52.12 53.4943 51.64 54.0943 51.3C54.7043 50.95 55.3893 50.775 56.1493 50.775C56.9093 50.775 57.5843 50.95 58.1743 51.3C58.7743 51.64 59.2393 52.12 59.5693 52.74C59.9093 53.36 60.0793 54.07 60.0793 54.87ZM56.1493 51.99C55.4593 51.99 54.8793 52.2 54.4093 52.62C53.9493 53.04 53.6793 53.59 53.5993 54.27H58.6993C58.6193 53.6 58.3443 53.055 57.8743 52.635C57.4143 52.205 56.8393 51.99 56.1493 51.99ZM69.2455 47.67V58.8H67.8655V57.54C67.5455 57.98 67.1405 58.315 66.6505 58.545C66.1605 58.775 65.6205 58.89 65.0305 58.89C64.2605 58.89 63.5705 58.72 62.9605 58.38C62.3505 58.04 61.8705 57.565 61.5205 56.955C61.1805 56.335 61.0105 55.625 61.0105 54.825C61.0105 54.025 61.1805 53.32 61.5205 52.71C61.8705 52.1 62.3505 51.625 62.9605 51.285C63.5705 50.945 64.2605 50.775 65.0305 50.775C65.6005 50.775 66.1255 50.885 66.6055 51.105C67.0855 51.315 67.4855 51.63 67.8055 52.05V47.67H69.2455ZM65.1505 57.63C65.6505 57.63 66.1055 57.515 66.5155 57.285C66.9255 57.045 67.2455 56.715 67.4755 56.295C67.7055 55.865 67.8205 55.375 67.8205 54.825C67.8205 54.275 67.7055 53.79 67.4755 53.37C67.2455 52.94 66.9255 52.61 66.5155 52.38C66.1055 52.15 65.6505 52.035 65.1505 52.035C64.6405 52.035 64.1805 52.15 63.7705 52.38C63.3705 52.61 63.0505 52.94 62.8105 53.37C62.5805 53.79 62.4655 54.275 62.4655 54.825C62.4655 55.375 62.5805 55.865 62.8105 56.295C63.0505 56.715 63.3705 57.045 63.7705 57.285C64.1805 57.515 64.6405 57.63 65.1505 57.63Z" fill="#74DB97"/>
<g clip-path="url(#clip0)">
<path d="M56.8251 23.2763C53.8081 26.3973 49.6121 28.3538 44.9538 28.3538C40.2954 28.3538 36.0878 26.3973 33.0825 23.2763C27.9617 26.7467 24.6211 32.3949 24.6211 38.8H65.298C65.2864 32.4065 61.9458 26.7583 56.8251 23.2763Z" fill="#74DB97"/>
<path d="M44.9538 22.5309C50.91 22.5309 55.7385 17.6663 55.7385 11.6654C55.7385 5.66462 50.91 0.799988 44.9538 0.799988C38.9975 0.799988 34.169 5.66462 34.169 11.6654C34.169 17.6663 38.9975 22.5309 44.9538 22.5309Z" fill="#74DB97"/>
<path d="M71.7133 24.0449C77.0695 24.0449 81.4115 19.6703 81.4115 14.2741C81.4115 8.87785 77.0695 4.50333 71.7133 4.50333C66.3572 4.50333 62.0152 8.87785 62.0152 14.2741C62.0152 19.6703 66.3572 24.0449 71.7133 24.0449Z" fill="#74DB97"/>
<path d="M18.2982 24.0449C23.6544 24.0449 27.9964 19.6703 27.9964 14.2741C27.9964 8.87785 23.6544 4.50333 18.2982 4.50333C12.9421 4.50333 8.60005 8.87785 8.60005 14.2741C8.60005 19.6703 12.9421 24.0449 18.2982 24.0449Z" fill="#74DB97"/>
<path d="M21.3961 29.5416C20.3904 29.7512 19.3617 29.8677 18.2982 29.8677C13.9173 29.8677 9.96404 28.016 7.14359 25.058C2.79733 28.2024 0 33.1285 0 38.6719H19.5004C19.5119 35.4577 20.1824 32.3832 21.3961 29.5416Z" fill="#74DB97"/>
<path d="M70.3956 38.6719H90C90 33.1169 87.2027 28.2024 82.868 25.0464C80.0475 28.0044 76.0943 29.8561 71.7133 29.8561C70.6037 29.8561 69.5286 29.7396 68.4999 29.5183C69.7136 32.3599 70.384 35.4577 70.3956 38.6719Z" fill="#74DB97"/>
</g>
<defs>
<clipPath id="clip0">
<rect y="0.799988" width="90" height="38" fill="white"/>
</clipPath>
</defs>
</svg>
