<svg width="90" height="62" viewBox="0 0 90 62" fill="none" xmlns="http://www.w3.org/2000/svg">
<g opacity="0.2">
<path d="M23.0299 58.12C22.2399 58.12 21.4749 58 20.7349 57.76C20.0049 57.51 19.4299 57.19 19.0099 56.8L19.5649 55.63C19.9649 55.99 20.4749 56.285 21.0949 56.515C21.7249 56.735 22.3699 56.845 23.0299 56.845C23.8999 56.845 24.5499 56.7 24.9799 56.41C25.4099 56.11 25.6249 55.715 25.6249 55.225C25.6249 54.865 25.5049 54.575 25.2649 54.355C25.0349 54.125 24.7449 53.95 24.3949 53.83C24.0549 53.71 23.5699 53.575 22.9399 53.425C22.1499 53.235 21.5099 53.045 21.0199 52.855C20.5399 52.665 20.1249 52.375 19.7749 51.985C19.4349 51.585 19.2649 51.05 19.2649 50.38C19.2649 49.82 19.4099 49.315 19.6999 48.865C19.9999 48.415 20.4499 48.055 21.0499 47.785C21.6499 47.515 22.3949 47.38 23.2849 47.38C23.9049 47.38 24.5149 47.46 25.1149 47.62C25.7149 47.78 26.2299 48.01 26.6599 48.31L26.1649 49.51C25.7249 49.23 25.2549 49.02 24.7549 48.88C24.2549 48.73 23.7649 48.655 23.2849 48.655C22.4349 48.655 21.7949 48.81 21.3649 49.12C20.9449 49.43 20.7349 49.83 20.7349 50.32C20.7349 50.68 20.8549 50.975 21.0949 51.205C21.3349 51.425 21.6299 51.6 21.9799 51.73C22.3399 51.85 22.8249 51.98 23.4349 52.12C24.2249 52.31 24.8599 52.5 25.3399 52.69C25.8199 52.88 26.2299 53.17 26.5699 53.56C26.9199 53.95 27.0949 54.475 27.0949 55.135C27.0949 55.685 26.9449 56.19 26.6449 56.65C26.3449 57.1 25.8899 57.46 25.2799 57.73C24.6699 57.99 23.9199 58.12 23.0299 58.12ZM32.9879 49.975C33.9979 49.975 34.7979 50.27 35.3879 50.86C35.9879 51.44 36.2879 52.295 36.2879 53.425V58H34.8479V53.59C34.8479 52.82 34.6629 52.24 34.2929 51.85C33.9229 51.46 33.3929 51.265 32.7029 51.265C31.9229 51.265 31.3079 51.495 30.8579 51.955C30.4079 52.405 30.1829 53.055 30.1829 53.905V58H28.7429V46.87H30.1829V51.175C30.4829 50.795 30.8729 50.5 31.3529 50.29C31.8429 50.08 32.3879 49.975 32.9879 49.975ZM41.5146 49.975C42.6146 49.975 43.4546 50.245 44.0346 50.785C44.6246 51.325 44.9196 52.13 44.9196 53.2V58H43.5546V56.95C43.3146 57.32 42.9696 57.605 42.5196 57.805C42.0796 57.995 41.5546 58.09 40.9446 58.09C40.0546 58.09 39.3396 57.875 38.7996 57.445C38.2696 57.015 38.0046 56.45 38.0046 55.75C38.0046 55.05 38.2596 54.49 38.7696 54.07C39.2796 53.64 40.0896 53.425 41.1996 53.425H43.4796V53.14C43.4796 52.52 43.2996 52.045 42.9396 51.715C42.5796 51.385 42.0496 51.22 41.3496 51.22C40.8796 51.22 40.4196 51.3 39.9696 51.46C39.5196 51.61 39.1396 51.815 38.8296 52.075L38.2296 50.995C38.6396 50.665 39.1296 50.415 39.6996 50.245C40.2696 50.065 40.8746 49.975 41.5146 49.975ZM41.1846 56.98C41.7346 56.98 42.2096 56.86 42.6096 56.62C43.0096 56.37 43.2996 56.02 43.4796 55.57V54.46H41.2596C40.0396 54.46 39.4296 54.87 39.4296 55.69C39.4296 56.09 39.5846 56.405 39.8946 56.635C40.2046 56.865 40.6346 56.98 41.1846 56.98ZM48.6311 51.385C48.8811 50.925 49.2511 50.575 49.7411 50.335C50.2311 50.095 50.8261 49.975 51.5261 49.975V51.37C51.4461 51.36 51.3361 51.355 51.1961 51.355C50.4161 51.355 49.8011 51.59 49.3511 52.06C48.9111 52.52 48.6911 53.18 48.6911 54.04V58H47.2511V50.05H48.6311V51.385ZM60.0793 54.07C60.0793 54.18 60.0693 54.325 60.0493 54.505H53.5993C53.6893 55.205 53.9943 55.77 54.5143 56.2C55.0443 56.62 55.6993 56.83 56.4793 56.83C57.4293 56.83 58.1943 56.51 58.7743 55.87L59.5693 56.8C59.2093 57.22 58.7593 57.54 58.2193 57.76C57.6893 57.98 57.0943 58.09 56.4343 58.09C55.5943 58.09 54.8493 57.92 54.1993 57.58C53.5493 57.23 53.0443 56.745 52.6843 56.125C52.3343 55.505 52.1593 54.805 52.1593 54.025C52.1593 53.255 52.3293 52.56 52.6693 51.94C53.0193 51.32 53.4943 50.84 54.0943 50.5C54.7043 50.15 55.3893 49.975 56.1493 49.975C56.9093 49.975 57.5843 50.15 58.1743 50.5C58.7743 50.84 59.2393 51.32 59.5693 51.94C59.9093 52.56 60.0793 53.27 60.0793 54.07ZM56.1493 51.19C55.4593 51.19 54.8793 51.4 54.4093 51.82C53.9493 52.24 53.6793 52.79 53.5993 53.47H58.6993C58.6193 52.8 58.3443 52.255 57.8743 51.835C57.4143 51.405 56.8393 51.19 56.1493 51.19ZM69.2455 46.87V58H67.8655V56.74C67.5455 57.18 67.1405 57.515 66.6505 57.745C66.1605 57.975 65.6205 58.09 65.0305 58.09C64.2605 58.09 63.5705 57.92 62.9605 57.58C62.3505 57.24 61.8705 56.765 61.5205 56.155C61.1805 55.535 61.0105 54.825 61.0105 54.025C61.0105 53.225 61.1805 52.52 61.5205 51.91C61.8705 51.3 62.3505 50.825 62.9605 50.485C63.5705 50.145 64.2605 49.975 65.0305 49.975C65.6005 49.975 66.1255 50.085 66.6055 50.305C67.0855 50.515 67.4855 50.83 67.8055 51.25V46.87H69.2455ZM65.1505 56.83C65.6505 56.83 66.1055 56.715 66.5155 56.485C66.9255 56.245 67.2455 55.915 67.4755 55.495C67.7055 55.065 67.8205 54.575 67.8205 54.025C67.8205 53.475 67.7055 52.99 67.4755 52.57C67.2455 52.14 66.9255 51.81 66.5155 51.58C66.1055 51.35 65.6505 51.235 65.1505 51.235C64.6405 51.235 64.1805 51.35 63.7705 51.58C63.3705 51.81 63.0505 52.14 62.8105 52.57C62.5805 52.99 62.4655 53.475 62.4655 54.025C62.4655 54.575 62.5805 55.065 62.8105 55.495C63.0505 55.915 63.3705 56.245 63.7705 56.485C64.1805 56.715 64.6405 56.83 65.1505 56.83Z" fill="black"/>
<g clip-path="url(#clip0)">
<path d="M56.8251 22.4763C53.8081 25.5973 49.6121 27.5538 44.9538 27.5538C40.2954 27.5538 36.0878 25.5973 33.0825 22.4763C27.9617 25.9467 24.6211 31.5949 24.6211 38H65.298C65.2864 31.6065 61.9458 25.9583 56.8251 22.4763Z" fill="black"/>
<path d="M44.9538 21.7309C50.91 21.7309 55.7385 16.8663 55.7385 10.8655C55.7385 4.86463 50.91 0 44.9538 0C38.9975 0 34.169 4.86463 34.169 10.8655C34.169 16.8663 38.9975 21.7309 44.9538 21.7309Z" fill="black"/>
<path d="M71.7133 23.2449C77.0695 23.2449 81.4115 18.8703 81.4115 13.4741C81.4115 8.07786 77.0695 3.70334 71.7133 3.70334C66.3572 3.70334 62.0152 8.07786 62.0152 13.4741C62.0152 18.8703 66.3572 23.2449 71.7133 23.2449Z" fill="black"/>
<path d="M18.2982 23.2449C23.6544 23.2449 27.9964 18.8703 27.9964 13.4741C27.9964 8.07786 23.6544 3.70334 18.2982 3.70334C12.9421 3.70334 8.60005 8.07786 8.60005 13.4741C8.60005 18.8703 12.9421 23.2449 18.2982 23.2449Z" fill="black"/>
<path d="M21.3961 28.7416C20.3904 28.9513 19.3617 29.0677 18.2982 29.0677C13.9173 29.0677 9.96404 27.216 7.14359 24.258C2.79733 27.4024 0 32.3285 0 37.8719H19.5004C19.5119 34.6577 20.1824 31.5832 21.3961 28.7416Z" fill="black"/>
<path d="M70.3956 37.8719H90C90 32.3169 87.2027 27.4024 82.868 24.2464C80.0475 27.2044 76.0943 29.0561 71.7133 29.0561C70.6037 29.0561 69.5286 28.9396 68.4999 28.7184C69.7136 31.5599 70.384 34.6577 70.3956 37.8719Z" fill="black"/>
</g>
</g>
<defs>
<clipPath id="clip0">
<rect width="90" height="38" fill="white"/>
</clipPath>
</defs>
</svg>
