<svg width="253" height="152" viewBox="0 0 253 152" fill="none" xmlns="http://www.w3.org/2000/svg">
<path d="M36.5905 55.9913V70.9149H72.7747V93.0517H36.5905V120.909H7.3457V33.8546H77.8553V55.9913H36.5905ZM159.12 52.8822V120.909H132.477V114.442C129.999 117.012 127.107 118.961 123.803 120.287C120.498 121.531 116.987 122.153 113.27 122.153C104.678 122.153 97.78 119.541 92.5754 114.318C87.3709 109.012 84.7686 101.052 84.7686 90.44V52.8822H112.774V85.5898C112.774 90.2327 113.518 93.5491 115.005 95.5389C116.492 97.5287 118.681 98.5237 121.572 98.5237C124.299 98.5237 126.57 97.4458 128.388 95.2902C130.205 93.0516 131.114 89.5695 131.114 84.8436V52.8822H159.12ZM246.511 28.6313V120.909H219.869V115.313C215.821 119.873 209.625 122.153 201.281 122.153C195.333 122.153 189.839 120.743 184.8 117.924C179.843 115.023 175.878 110.877 172.904 105.488C170.013 100.099 168.567 93.8807 168.567 86.8335C168.567 79.7862 170.013 73.6095 172.904 68.3033C175.878 62.9142 179.843 58.8102 184.8 55.9913C189.839 53.0895 195.333 51.6386 201.281 51.6386C208.799 51.6386 214.541 53.5869 218.506 57.4836V28.6313H246.511ZM207.973 100.265C211.195 100.265 213.838 99.104 215.904 96.7826C217.969 94.3782 219.002 91.0618 219.002 86.8335C219.002 82.6051 217.969 79.3302 215.904 77.0087C213.838 74.6873 211.195 73.5266 207.973 73.5266C204.751 73.5266 202.107 74.6873 200.042 77.0087C197.977 79.3302 196.944 82.6051 196.944 86.8335C196.944 91.0618 197.977 94.3782 200.042 96.7826C202.107 99.104 204.751 100.265 207.973 100.265Z" fill="white"/>
<path d="M106.708 38C113.361 38 118.755 32.5867 118.755 25.9091C118.755 19.2315 113.361 13.8182 106.708 13.8182C100.054 13.8182 94.6599 19.2315 94.6599 25.9091C94.6599 32.5867 100.054 38 106.708 38Z" fill="white"/>
<path d="M141.129 38C147.783 38 153.177 32.5867 153.177 25.9091C153.177 19.2315 147.783 13.8182 141.129 13.8182C134.476 13.8182 129.082 19.2315 129.082 25.9091C129.082 32.5867 134.476 38 141.129 38Z" fill="white"/>
</svg>
