<svg width="65" height="64" viewBox="0 0 65 64" fill="none" xmlns="http://www.w3.org/2000/svg">
<path d="M44.78 24.35C41.69 27.42 37.44 29.33 32.75 29.33C28.06 29.33 23.81 27.43 20.72 24.35C14.29 28.1 10 34.77 10 42.38H55.5C55.5 34.77 51.22 28.1 44.78 24.35Z" fill="#74DB97"/>
<path d="M32.75 24.32C39.4106 24.32 44.81 18.9206 44.81 12.26C44.81 5.59946 39.4106 0.200012 32.75 0.200012C26.0894 0.200012 20.69 5.59946 20.69 12.26C20.69 18.9206 26.0894 24.32 32.75 24.32Z" fill="#74DB97"/>
<path d="M6.16528 49.5C7.52528 49.5 8.59528 49.825 9.37528 50.475C10.1553 51.125 10.5453 52.02 10.5453 53.16C10.5453 54.3 10.1553 55.195 9.37528 55.845C8.59528 56.495 7.52528 56.82 6.16528 56.82H3.57028V60H2.07028V49.5H6.16528ZM6.12028 55.515C7.07028 55.515 7.79528 55.315 8.29528 54.915C8.79528 54.505 9.04528 53.92 9.04528 53.16C9.04528 52.4 8.79528 51.82 8.29528 51.42C7.79528 51.01 7.07028 50.805 6.12028 50.805H3.57028V55.515H6.12028ZM19.3614 56.07C19.3614 56.18 19.3514 56.325 19.3314 56.505H12.8814C12.9714 57.205 13.2764 57.77 13.7964 58.2C14.3264 58.62 14.9814 58.83 15.7614 58.83C16.7114 58.83 17.4764 58.51 18.0564 57.87L18.8514 58.8C18.4914 59.22 18.0414 59.54 17.5014 59.76C16.9714 59.98 16.3764 60.09 15.7164 60.09C14.8764 60.09 14.1314 59.92 13.4814 59.58C12.8314 59.23 12.3264 58.745 11.9664 58.125C11.6164 57.505 11.4414 56.805 11.4414 56.025C11.4414 55.255 11.6114 54.56 11.9514 53.94C12.3014 53.32 12.7764 52.84 13.3764 52.5C13.9864 52.15 14.6714 51.975 15.4314 51.975C16.1914 51.975 16.8664 52.15 17.4564 52.5C18.0564 52.84 18.5214 53.32 18.8514 53.94C19.1914 54.56 19.3614 55.27 19.3614 56.07ZM15.4314 53.19C14.7414 53.19 14.1614 53.4 13.6914 53.82C13.2314 54.24 12.9614 54.79 12.8814 55.47H17.9814C17.9014 54.8 17.6264 54.255 17.1564 53.835C16.6964 53.405 16.1214 53.19 15.4314 53.19ZM22.4076 53.385C22.6576 52.925 23.0276 52.575 23.5176 52.335C24.0076 52.095 24.6026 51.975 25.3026 51.975V53.37C25.2226 53.36 25.1126 53.355 24.9726 53.355C24.1926 53.355 23.5776 53.59 23.1276 54.06C22.6876 54.52 22.4676 55.18 22.4676 56.04V60H21.0276V52.05H22.4076V53.385ZM29.0827 60.09C28.4327 60.09 27.8077 60.005 27.2077 59.835C26.6077 59.655 26.1377 59.43 25.7977 59.16L26.3977 58.02C26.7477 58.27 27.1727 58.47 27.6727 58.62C28.1727 58.77 28.6777 58.845 29.1877 58.845C30.4477 58.845 31.0777 58.485 31.0777 57.765C31.0777 57.525 30.9927 57.335 30.8227 57.195C30.6527 57.055 30.4377 56.955 30.1777 56.895C29.9277 56.825 29.5677 56.75 29.0977 56.67C28.4577 56.57 27.9327 56.455 27.5227 56.325C27.1227 56.195 26.7777 55.975 26.4877 55.665C26.1977 55.355 26.0527 54.92 26.0527 54.36C26.0527 53.64 26.3527 53.065 26.9527 52.635C27.5527 52.195 28.3577 51.975 29.3677 51.975C29.8977 51.975 30.4277 52.04 30.9577 52.17C31.4877 52.3 31.9227 52.475 32.2627 52.695L31.6477 53.835C30.9977 53.415 30.2327 53.205 29.3527 53.205C28.7427 53.205 28.2777 53.305 27.9577 53.505C27.6377 53.705 27.4777 53.97 27.4777 54.3C27.4777 54.56 27.5677 54.765 27.7477 54.915C27.9277 55.065 28.1477 55.175 28.4077 55.245C28.6777 55.315 29.0527 55.395 29.5327 55.485C30.1727 55.595 30.6877 55.715 31.0777 55.845C31.4777 55.965 31.8177 56.175 32.0977 56.475C32.3777 56.775 32.5177 57.195 32.5177 57.735C32.5177 58.455 32.2077 59.03 31.5877 59.46C30.9777 59.88 30.1427 60.09 29.0827 60.09ZM37.389 60.09C36.599 60.09 35.889 59.915 35.259 59.565C34.629 59.215 34.134 58.735 33.774 58.125C33.424 57.505 33.249 56.805 33.249 56.025C33.249 55.245 33.424 54.55 33.774 53.94C34.134 53.32 34.629 52.84 35.259 52.5C35.889 52.15 36.599 51.975 37.389 51.975C38.179 51.975 38.884 52.15 39.504 52.5C40.134 52.84 40.624 53.32 40.974 53.94C41.334 54.55 41.514 55.245 41.514 56.025C41.514 56.805 41.334 57.505 40.974 58.125C40.624 58.735 40.134 59.215 39.504 59.565C38.884 59.915 38.179 60.09 37.389 60.09ZM37.389 58.83C37.899 58.83 38.354 58.715 38.754 58.485C39.164 58.245 39.484 57.915 39.714 57.495C39.944 57.065 40.059 56.575 40.059 56.025C40.059 55.475 39.944 54.99 39.714 54.57C39.484 54.14 39.164 53.81 38.754 53.58C38.354 53.35 37.899 53.235 37.389 53.235C36.879 53.235 36.419 53.35 36.009 53.58C35.609 53.81 35.289 54.14 35.049 54.57C34.819 54.99 34.704 55.475 34.704 56.025C34.704 56.575 34.819 57.065 35.049 57.495C35.289 57.915 35.609 58.245 36.009 58.485C36.419 58.715 36.879 58.83 37.389 58.83ZM47.4171 51.975C48.4271 51.975 49.2271 52.27 49.8171 52.86C50.4171 53.44 50.7171 54.295 50.7171 55.425V60H49.2771V55.59C49.2771 54.82 49.0921 54.24 48.7221 53.85C48.3521 53.46 47.8221 53.265 47.1321 53.265C46.3521 53.265 45.7371 53.495 45.2871 53.955C44.8371 54.405 44.6121 55.055 44.6121 55.905V60H43.1721V52.05H44.5521V53.25C44.8421 52.84 45.2321 52.525 45.7221 52.305C46.2221 52.085 46.7871 51.975 47.4171 51.975ZM55.9438 51.975C57.0438 51.975 57.8838 52.245 58.4638 52.785C59.0538 53.325 59.3488 54.13 59.3488 55.2V60H57.9838V58.95C57.7438 59.32 57.3988 59.605 56.9488 59.805C56.5088 59.995 55.9838 60.09 55.3738 60.09C54.4838 60.09 53.7688 59.875 53.2288 59.445C52.6988 59.015 52.4338 58.45 52.4338 57.75C52.4338 57.05 52.6888 56.49 53.1988 56.07C53.7088 55.64 54.5188 55.425 55.6288 55.425H57.9088V55.14C57.9088 54.52 57.7288 54.045 57.3688 53.715C57.0088 53.385 56.4788 53.22 55.7788 53.22C55.3088 53.22 54.8488 53.3 54.3988 53.46C53.9488 53.61 53.5688 53.815 53.2588 54.075L52.6588 52.995C53.0688 52.665 53.5588 52.415 54.1288 52.245C54.6988 52.065 55.3038 51.975 55.9438 51.975ZM55.6138 58.98C56.1638 58.98 56.6388 58.86 57.0388 58.62C57.4388 58.37 57.7288 58.02 57.9088 57.57V56.46H55.6888C54.4688 56.46 53.8588 56.87 53.8588 57.69C53.8588 58.09 54.0138 58.405 54.3238 58.635C54.6338 58.865 55.0638 58.98 55.6138 58.98ZM61.6803 48.87H63.1203V60H61.6803V48.87Z" fill="#74DB97"/>
</svg>
