<svg width="65" height="64" viewBox="0 0 65 64" fill="none" xmlns="http://www.w3.org/2000/svg">
<path d="M44.78 24.15C41.69 27.22 37.44 29.13 32.75 29.13C28.06 29.13 23.81 27.23 20.72 24.15C14.29 27.9 10 34.57 10 42.18H55.5C55.5 34.57 51.22 27.9 44.78 24.15Z" fill="black" fill-opacity="0.2"/>
<path d="M32.75 24.12C39.4106 24.12 44.81 18.7206 44.81 12.06C44.81 5.39944 39.4106 0 32.75 0C26.0894 0 20.69 5.39944 20.69 12.06C20.69 18.7206 26.0894 24.12 32.75 24.12Z" fill="black" fill-opacity="0.2"/>
<path d="M6.16528 49.3C7.52528 49.3 8.59528 49.625 9.37528 50.275C10.1553 50.925 10.5453 51.82 10.5453 52.96C10.5453 54.1 10.1553 54.995 9.37528 55.645C8.59528 56.295 7.52528 56.62 6.16528 56.62H3.57028V59.8H2.07028V49.3H6.16528ZM6.12028 55.315C7.07028 55.315 7.79528 55.115 8.29528 54.715C8.79528 54.305 9.04528 53.72 9.04528 52.96C9.04528 52.2 8.79528 51.62 8.29528 51.22C7.79528 50.81 7.07028 50.605 6.12028 50.605H3.57028V55.315H6.12028ZM19.3614 55.87C19.3614 55.98 19.3514 56.125 19.3314 56.305H12.8814C12.9714 57.005 13.2764 57.57 13.7964 58C14.3264 58.42 14.9814 58.63 15.7614 58.63C16.7114 58.63 17.4764 58.31 18.0564 57.67L18.8514 58.6C18.4914 59.02 18.0414 59.34 17.5014 59.56C16.9714 59.78 16.3764 59.89 15.7164 59.89C14.8764 59.89 14.1314 59.72 13.4814 59.38C12.8314 59.03 12.3264 58.545 11.9664 57.925C11.6164 57.305 11.4414 56.605 11.4414 55.825C11.4414 55.055 11.6114 54.36 11.9514 53.74C12.3014 53.12 12.7764 52.64 13.3764 52.3C13.9864 51.95 14.6714 51.775 15.4314 51.775C16.1914 51.775 16.8664 51.95 17.4564 52.3C18.0564 52.64 18.5214 53.12 18.8514 53.74C19.1914 54.36 19.3614 55.07 19.3614 55.87ZM15.4314 52.99C14.7414 52.99 14.1614 53.2 13.6914 53.62C13.2314 54.04 12.9614 54.59 12.8814 55.27H17.9814C17.9014 54.6 17.6264 54.055 17.1564 53.635C16.6964 53.205 16.1214 52.99 15.4314 52.99ZM22.4076 53.185C22.6576 52.725 23.0276 52.375 23.5176 52.135C24.0076 51.895 24.6026 51.775 25.3026 51.775V53.17C25.2226 53.16 25.1126 53.155 24.9726 53.155C24.1926 53.155 23.5776 53.39 23.1276 53.86C22.6876 54.32 22.4676 54.98 22.4676 55.84V59.8H21.0276V51.85H22.4076V53.185ZM29.0827 59.89C28.4327 59.89 27.8077 59.805 27.2077 59.635C26.6077 59.455 26.1377 59.23 25.7977 58.96L26.3977 57.82C26.7477 58.07 27.1727 58.27 27.6727 58.42C28.1727 58.57 28.6777 58.645 29.1877 58.645C30.4477 58.645 31.0777 58.285 31.0777 57.565C31.0777 57.325 30.9927 57.135 30.8227 56.995C30.6527 56.855 30.4377 56.755 30.1777 56.695C29.9277 56.625 29.5677 56.55 29.0977 56.47C28.4577 56.37 27.9327 56.255 27.5227 56.125C27.1227 55.995 26.7777 55.775 26.4877 55.465C26.1977 55.155 26.0527 54.72 26.0527 54.16C26.0527 53.44 26.3527 52.865 26.9527 52.435C27.5527 51.995 28.3577 51.775 29.3677 51.775C29.8977 51.775 30.4277 51.84 30.9577 51.97C31.4877 52.1 31.9227 52.275 32.2627 52.495L31.6477 53.635C30.9977 53.215 30.2327 53.005 29.3527 53.005C28.7427 53.005 28.2777 53.105 27.9577 53.305C27.6377 53.505 27.4777 53.77 27.4777 54.1C27.4777 54.36 27.5677 54.565 27.7477 54.715C27.9277 54.865 28.1477 54.975 28.4077 55.045C28.6777 55.115 29.0527 55.195 29.5327 55.285C30.1727 55.395 30.6877 55.515 31.0777 55.645C31.4777 55.765 31.8177 55.975 32.0977 56.275C32.3777 56.575 32.5177 56.995 32.5177 57.535C32.5177 58.255 32.2077 58.83 31.5877 59.26C30.9777 59.68 30.1427 59.89 29.0827 59.89ZM37.389 59.89C36.599 59.89 35.889 59.715 35.259 59.365C34.629 59.015 34.134 58.535 33.774 57.925C33.424 57.305 33.249 56.605 33.249 55.825C33.249 55.045 33.424 54.35 33.774 53.74C34.134 53.12 34.629 52.64 35.259 52.3C35.889 51.95 36.599 51.775 37.389 51.775C38.179 51.775 38.884 51.95 39.504 52.3C40.134 52.64 40.624 53.12 40.974 53.74C41.334 54.35 41.514 55.045 41.514 55.825C41.514 56.605 41.334 57.305 40.974 57.925C40.624 58.535 40.134 59.015 39.504 59.365C38.884 59.715 38.179 59.89 37.389 59.89ZM37.389 58.63C37.899 58.63 38.354 58.515 38.754 58.285C39.164 58.045 39.484 57.715 39.714 57.295C39.944 56.865 40.059 56.375 40.059 55.825C40.059 55.275 39.944 54.79 39.714 54.37C39.484 53.94 39.164 53.61 38.754 53.38C38.354 53.15 37.899 53.035 37.389 53.035C36.879 53.035 36.419 53.15 36.009 53.38C35.609 53.61 35.289 53.94 35.049 54.37C34.819 54.79 34.704 55.275 34.704 55.825C34.704 56.375 34.819 56.865 35.049 57.295C35.289 57.715 35.609 58.045 36.009 58.285C36.419 58.515 36.879 58.63 37.389 58.63ZM47.4171 51.775C48.4271 51.775 49.2271 52.07 49.8171 52.66C50.4171 53.24 50.7171 54.095 50.7171 55.225V59.8H49.2771V55.39C49.2771 54.62 49.0921 54.04 48.7221 53.65C48.3521 53.26 47.8221 53.065 47.1321 53.065C46.3521 53.065 45.7371 53.295 45.2871 53.755C44.8371 54.205 44.6121 54.855 44.6121 55.705V59.8H43.1721V51.85H44.5521V53.05C44.8421 52.64 45.2321 52.325 45.7221 52.105C46.2221 51.885 46.7871 51.775 47.4171 51.775ZM55.9438 51.775C57.0438 51.775 57.8838 52.045 58.4638 52.585C59.0538 53.125 59.3488 53.93 59.3488 55V59.8H57.9838V58.75C57.7438 59.12 57.3988 59.405 56.9488 59.605C56.5088 59.795 55.9838 59.89 55.3738 59.89C54.4838 59.89 53.7688 59.675 53.2288 59.245C52.6988 58.815 52.4338 58.25 52.4338 57.55C52.4338 56.85 52.6888 56.29 53.1988 55.87C53.7088 55.44 54.5188 55.225 55.6288 55.225H57.9088V54.94C57.9088 54.32 57.7288 53.845 57.3688 53.515C57.0088 53.185 56.4788 53.02 55.7788 53.02C55.3088 53.02 54.8488 53.1 54.3988 53.26C53.9488 53.41 53.5688 53.615 53.2588 53.875L52.6588 52.795C53.0688 52.465 53.5588 52.215 54.1288 52.045C54.6988 51.865 55.3038 51.775 55.9438 51.775ZM55.6138 58.78C56.1638 58.78 56.6388 58.66 57.0388 58.42C57.4388 58.17 57.7288 57.82 57.9088 57.37V56.26H55.6888C54.4688 56.26 53.8588 56.67 53.8588 57.49C53.8588 57.89 54.0138 58.205 54.3238 58.435C54.6338 58.665 55.0638 58.78 55.6138 58.78ZM61.6803 48.67H63.1203V59.8H61.6803V48.67Z" fill="black" fill-opacity="0.2"/>
</svg>
