<svg width="44" height="40" viewBox="0 0 44 40" fill="none" xmlns="http://www.w3.org/2000/svg">
<path d="M12 2L32 22" stroke="#EB5454" stroke-width="5" stroke-miterlimit="10"/>
<path d="M32 2L12 22" stroke="#EB5454" stroke-width="5" stroke-miterlimit="10"/>
<path d="M7.68931 34L6.17931 31.85C5.99264 31.8633 5.84598 31.87 5.73931 31.87H4.00931V34H3.00931V27H5.73931C6.64598 27 7.35931 27.2167 7.87931 27.65C8.39931 28.0833 8.65931 28.68 8.65931 29.44C8.65931 29.98 8.52598 30.44 8.25931 30.82C7.99264 31.2 7.61264 31.4767 7.11931 31.65L8.77931 34H7.68931ZM5.70931 31.02C6.34264 31.02 6.82598 30.8833 7.15931 30.61C7.49264 30.3367 7.65931 29.9467 7.65931 29.44C7.65931 28.9333 7.49264 28.5467 7.15931 28.28C6.82598 28.0067 6.34264 27.87 5.70931 27.87H4.00931V31.02H5.70931ZM14.5916 31.38C14.5916 31.4533 14.5849 31.55 14.5716 31.67H10.2716C10.3316 32.1367 10.5349 32.5133 10.8816 32.8C11.2349 33.08 11.6716 33.22 12.1916 33.22C12.8249 33.22 13.3349 33.0067 13.7216 32.58L14.2516 33.2C14.0116 33.48 13.7116 33.6933 13.3516 33.84C12.9983 33.9867 12.6016 34.06 12.1616 34.06C11.6016 34.06 11.1049 33.9467 10.6716 33.72C10.2383 33.4867 9.9016 33.1633 9.6616 32.75C9.42827 32.3367 9.3116 31.87 9.3116 31.35C9.3116 30.8367 9.42493 30.3733 9.6516 29.96C9.88493 29.5467 10.2016 29.2267 10.6016 29C11.0083 28.7667 11.4649 28.65 11.9716 28.65C12.4783 28.65 12.9283 28.7667 13.3216 29C13.7216 29.2267 14.0316 29.5467 14.2516 29.96C14.4783 30.3733 14.5916 30.8467 14.5916 31.38ZM11.9716 29.46C11.5116 29.46 11.1249 29.6 10.8116 29.88C10.5049 30.16 10.3249 30.5267 10.2716 30.98H13.6716C13.6183 30.5333 13.4349 30.17 13.1216 29.89C12.8149 29.6033 12.4316 29.46 11.9716 29.46ZM22.2213 28.65C22.888 28.65 23.4146 28.8433 23.8013 29.23C24.1946 29.6167 24.3913 30.19 24.3913 30.95V34H23.4313V31.06C23.4313 30.5467 23.3113 30.16 23.0713 29.9C22.838 29.64 22.5013 29.51 22.0613 29.51C21.5746 29.51 21.188 29.6633 20.9013 29.97C20.6146 30.27 20.4713 30.7033 20.4713 31.27V34H19.5113V31.06C19.5113 30.5467 19.3913 30.16 19.1513 29.9C18.918 29.64 18.5813 29.51 18.1413 29.51C17.6546 29.51 17.268 29.6633 16.9813 29.97C16.6946 30.27 16.5513 30.7033 16.5513 31.27V34H15.5913V28.7H16.5113V29.49C16.7046 29.2167 16.958 29.01 17.2713 28.87C17.5846 28.7233 17.9413 28.65 18.3413 28.65C18.7546 28.65 19.1213 28.7333 19.4413 28.9C19.7613 29.0667 20.008 29.31 20.1813 29.63C20.3813 29.3233 20.658 29.0833 21.0113 28.91C21.3713 28.7367 21.7746 28.65 22.2213 28.65ZM28.1237 34.06C27.597 34.06 27.1237 33.9433 26.7037 33.71C26.2837 33.4767 25.9537 33.1567 25.7137 32.75C25.4804 32.3367 25.3637 31.87 25.3637 31.35C25.3637 30.83 25.4804 30.3667 25.7137 29.96C25.9537 29.5467 26.2837 29.2267 26.7037 29C27.1237 28.7667 27.597 28.65 28.1237 28.65C28.6504 28.65 29.1204 28.7667 29.5337 29C29.9537 29.2267 30.2804 29.5467 30.5137 29.96C30.7537 30.3667 30.8737 30.83 30.8737 31.35C30.8737 31.87 30.7537 32.3367 30.5137 32.75C30.2804 33.1567 29.9537 33.4767 29.5337 33.71C29.1204 33.9433 28.6504 34.06 28.1237 34.06ZM28.1237 33.22C28.4637 33.22 28.767 33.1433 29.0337 32.99C29.307 32.83 29.5204 32.61 29.6737 32.33C29.827 32.0433 29.9037 31.7167 29.9037 31.35C29.9037 30.9833 29.827 30.66 29.6737 30.38C29.5204 30.0933 29.307 29.8733 29.0337 29.72C28.767 29.5667 28.4637 29.49 28.1237 29.49C27.7837 29.49 27.477 29.5667 27.2037 29.72C26.937 29.8733 26.7237 30.0933 26.5637 30.38C26.4104 30.66 26.3337 30.9833 26.3337 31.35C26.3337 31.7167 26.4104 32.0433 26.5637 32.33C26.7237 32.61 26.937 32.83 27.2037 32.99C27.477 33.1433 27.7837 33.22 28.1237 33.22ZM36.4115 28.7L34.0915 34H33.1115L30.7915 28.7H31.7915L33.6115 32.95L35.4715 28.7H36.4115ZM41.6176 31.38C41.6176 31.4533 41.611 31.55 41.5976 31.67H37.2976C37.3576 32.1367 37.561 32.5133 37.9076 32.8C38.261 33.08 38.6976 33.22 39.2176 33.22C39.851 33.22 40.361 33.0067 40.7476 32.58L41.2776 33.2C41.0376 33.48 40.7376 33.6933 40.3776 33.84C40.0243 33.9867 39.6276 34.06 39.1876 34.06C38.6276 34.06 38.131 33.9467 37.6976 33.72C37.2643 33.4867 36.9276 33.1633 36.6876 32.75C36.4543 32.3367 36.3376 31.87 36.3376 31.35C36.3376 30.8367 36.451 30.3733 36.6776 29.96C36.911 29.5467 37.2276 29.2267 37.6276 29C38.0343 28.7667 38.491 28.65 38.9976 28.65C39.5043 28.65 39.9543 28.7667 40.3476 29C40.7476 29.2267 41.0576 29.5467 41.2776 29.96C41.5043 30.3733 41.6176 30.8467 41.6176 31.38ZM38.9976 29.46C38.5376 29.46 38.151 29.6 37.8376 29.88C37.531 30.16 37.351 30.5267 37.2976 30.98H40.6976C40.6443 30.5333 40.461 30.17 40.1476 29.89C39.841 29.6033 39.4576 29.46 38.9976 29.46Z" fill="#EB5454"/>
</svg>
