<svg width="58" height="42" viewBox="0 0 58 42" fill="none" xmlns="http://www.w3.org/2000/svg">
<path d="M53.9701 7.85999H4.1701C2.05011 7.85999 0.340088 6.14003 0.340088 4.03003C0.340088 1.91003 2.06011 0.200012 4.1701 0.200012H53.9701C56.0901 0.200012 57.8001 1.92003 57.8001 4.03003C57.8001 6.14003 56.0901 7.85999 53.9701 7.85999Z" fill="black"/>
<path d="M53.9701 24.54H4.1701C2.05011 24.54 0.340088 22.82 0.340088 20.71C0.340088 18.59 2.06011 16.88 4.1701 16.88H53.9701C56.0901 16.88 57.8001 18.6 57.8001 20.71C57.8001 22.83 56.0901 24.54 53.9701 24.54Z" fill="black"/>
<path d="M53.9701 41.23H4.1701C2.05011 41.23 0.340088 39.51 0.340088 37.4C0.340088 35.28 2.06011 33.57 4.1701 33.57H53.9701C56.0901 33.57 57.8001 35.29 57.8001 37.4C57.8001 39.51 56.0901 41.23 53.9701 41.23Z" fill="black"/>
</svg>
