<svg width="61" height="59" viewBox="0 0 61 59" fill="none" xmlns="http://www.w3.org/2000/svg">
<g opacity="0.2">
<path d="M51.7339 7.44466H9.26611C7.45825 7.44466 6 5.97794 6 4.1786C6 2.37074 7.46677 0.912491 9.26611 0.912491H51.7339C53.5418 0.912491 55 2.37927 55 4.1786C55 5.97794 53.5418 7.44466 51.7339 7.44466Z" fill="black"/>
<path d="M51.7339 21.6688H9.26611C7.45825 21.6688 6 20.2021 6 18.4028C6 16.5949 7.46677 15.1367 9.26611 15.1367H51.7339C53.5418 15.1367 55 16.6034 55 18.4028C55 20.2106 53.5418 21.6688 51.7339 21.6688Z" fill="black"/>
<path d="M51.7339 35.9015H9.26611C7.45825 35.9015 6 34.4348 6 32.6354C6 30.8276 7.46677 29.3693 9.26611 29.3693H51.7339C53.5418 29.3693 55 30.8361 55 32.6354C55 34.4348 53.5418 35.9015 51.7339 35.9015Z" fill="black"/>
<path d="M4.77823 55.12C3.98823 55.12 3.22323 55 2.48323 54.76C1.75323 54.51 1.17823 54.19 0.758229 53.8L1.31323 52.63C1.71323 52.99 2.22323 53.285 2.84323 53.515C3.47323 53.735 4.11823 53.845 4.77823 53.845C5.64823 53.845 6.29823 53.7 6.72823 53.41C7.15823 53.11 7.37323 52.715 7.37323 52.225C7.37323 51.865 7.25323 51.575 7.01323 51.355C6.78323 51.125 6.49323 50.95 6.14323 50.83C5.80323 50.71 5.31823 50.575 4.68823 50.425C3.89823 50.235 3.25823 50.045 2.76823 49.855C2.28823 49.665 1.87323 49.375 1.52323 48.985C1.18323 48.585 1.01323 48.05 1.01323 47.38C1.01323 46.82 1.15823 46.315 1.44823 45.865C1.74823 45.415 2.19823 45.055 2.79823 44.785C3.39823 44.515 4.14323 44.38 5.03323 44.38C5.65323 44.38 6.26323 44.46 6.86323 44.62C7.46323 44.78 7.97823 45.01 8.40823 45.31L7.91323 46.51C7.47323 46.23 7.00323 46.02 6.50323 45.88C6.00323 45.73 5.51323 45.655 5.03323 45.655C4.18323 45.655 3.54323 45.81 3.11323 46.12C2.69323 46.43 2.48323 46.83 2.48323 47.32C2.48323 47.68 2.60323 47.975 2.84323 48.205C3.08323 48.425 3.37823 48.6 3.72823 48.73C4.08823 48.85 4.57323 48.98 5.18323 49.12C5.97323 49.31 6.60823 49.5 7.08823 49.69C7.56823 49.88 7.97823 50.17 8.31823 50.56C8.66823 50.95 8.84323 51.475 8.84323 52.135C8.84323 52.685 8.69323 53.19 8.39323 53.65C8.09323 54.1 7.63823 54.46 7.02823 54.73C6.41823 54.99 5.66823 55.12 4.77823 55.12ZM17.6763 51.07C17.6763 51.18 17.6663 51.325 17.6463 51.505H11.1963C11.2863 52.205 11.5913 52.77 12.1113 53.2C12.6413 53.62 13.2963 53.83 14.0763 53.83C15.0263 53.83 15.7913 53.51 16.3713 52.87L17.1663 53.8C16.8063 54.22 16.3563 54.54 15.8163 54.76C15.2863 54.98 14.6913 55.09 14.0313 55.09C13.1913 55.09 12.4463 54.92 11.7963 54.58C11.1463 54.23 10.6413 53.745 10.2813 53.125C9.9313 52.505 9.7563 51.805 9.7563 51.025C9.7563 50.255 9.9263 49.56 10.2663 48.94C10.6163 48.32 11.0913 47.84 11.6913 47.5C12.3013 47.15 12.9863 46.975 13.7463 46.975C14.5063 46.975 15.1813 47.15 15.7713 47.5C16.3713 47.84 16.8363 48.32 17.1663 48.94C17.5063 49.56 17.6763 50.27 17.6763 51.07ZM13.7463 48.19C13.0563 48.19 12.4763 48.4 12.0063 48.82C11.5463 49.24 11.2763 49.79 11.1963 50.47H16.2963C16.2163 49.8 15.9413 49.255 15.4713 48.835C15.0113 48.405 14.4363 48.19 13.7463 48.19ZM23.8125 54.535C23.6025 54.715 23.3425 54.855 23.0325 54.955C22.7225 55.045 22.4025 55.09 22.0725 55.09C21.2725 55.09 20.6525 54.875 20.2125 54.445C19.7725 54.015 19.5525 53.4 19.5525 52.6V48.235H18.2025V47.05H19.5525V45.31H20.9925V47.05H23.2725V48.235H20.9925V52.54C20.9925 52.97 21.0975 53.3 21.3075 53.53C21.5275 53.76 21.8375 53.875 22.2375 53.875C22.6775 53.875 23.0525 53.75 23.3625 53.5L23.8125 54.535ZM29.4997 54.535C29.2897 54.715 29.0297 54.855 28.7197 54.955C28.4097 55.045 28.0897 55.09 27.7597 55.09C26.9597 55.09 26.3397 54.875 25.8997 54.445C25.4597 54.015 25.2397 53.4 25.2397 52.6V48.235H23.8897V47.05H25.2397V45.31H26.6797V47.05H28.9597V48.235H26.6797V52.54C26.6797 52.97 26.7847 53.3 26.9947 53.53C27.2147 53.76 27.5247 53.875 27.9247 53.875C28.3647 53.875 28.7397 53.75 29.0497 53.5L29.4997 54.535ZM30.9073 47.05H32.3473V55H30.9073V47.05ZM31.6273 45.52C31.3473 45.52 31.1123 45.43 30.9223 45.25C30.7423 45.07 30.6523 44.85 30.6523 44.59C30.6523 44.33 30.7423 44.11 30.9223 43.93C31.1123 43.74 31.3473 43.645 31.6273 43.645C31.9073 43.645 32.1373 43.735 32.3173 43.915C32.5073 44.085 32.6023 44.3 32.6023 44.56C32.6023 44.83 32.5073 45.06 32.3173 45.25C32.1373 45.43 31.9073 45.52 31.6273 45.52ZM39.0084 46.975C40.0184 46.975 40.8184 47.27 41.4084 47.86C42.0084 48.44 42.3084 49.295 42.3084 50.425V55H40.8684V50.59C40.8684 49.82 40.6834 49.24 40.3134 48.85C39.9434 48.46 39.4134 48.265 38.7234 48.265C37.9434 48.265 37.3284 48.495 36.8784 48.955C36.4284 49.405 36.2034 50.055 36.2034 50.905V55H34.7634V47.05H36.1434V48.25C36.4334 47.84 36.8234 47.525 37.3134 47.305C37.8134 47.085 38.3784 46.975 39.0084 46.975ZM52.289 47.05V53.92C52.289 55.31 51.944 56.335 51.254 56.995C50.564 57.665 49.534 58 48.164 58C47.414 58 46.699 57.895 46.019 57.685C45.339 57.485 44.789 57.195 44.369 56.815L45.059 55.705C45.429 56.025 45.884 56.275 46.424 56.455C46.974 56.645 47.539 56.74 48.119 56.74C49.049 56.74 49.734 56.52 50.174 56.08C50.624 55.64 50.849 54.97 50.849 54.07V53.44C50.509 53.85 50.089 54.16 49.589 54.37C49.099 54.57 48.564 54.67 47.984 54.67C47.224 54.67 46.534 54.51 45.914 54.19C45.304 53.86 44.824 53.405 44.474 52.825C44.124 52.235 43.949 51.565 43.949 50.815C43.949 50.065 44.124 49.4 44.474 48.82C44.824 48.23 45.304 47.775 45.914 47.455C46.534 47.135 47.224 46.975 47.984 46.975C48.584 46.975 49.139 47.085 49.649 47.305C50.169 47.525 50.594 47.85 50.924 48.28V47.05H52.289ZM48.149 53.41C48.669 53.41 49.134 53.3 49.544 53.08C49.964 52.86 50.289 52.555 50.519 52.165C50.759 51.765 50.879 51.315 50.879 50.815C50.879 50.045 50.624 49.425 50.114 48.955C49.604 48.475 48.949 48.235 48.149 48.235C47.339 48.235 46.679 48.475 46.169 48.955C45.659 49.425 45.404 50.045 45.404 50.815C45.404 51.315 45.519 51.765 45.749 52.165C45.989 52.555 46.314 52.86 46.724 53.08C47.144 53.3 47.619 53.41 48.149 53.41ZM56.9871 55.09C56.3371 55.09 55.7121 55.005 55.1121 54.835C54.5121 54.655 54.0421 54.43 53.7021 54.16L54.3021 53.02C54.6521 53.27 55.0771 53.47 55.5771 53.62C56.0771 53.77 56.5821 53.845 57.0921 53.845C58.3521 53.845 58.9821 53.485 58.9821 52.765C58.9821 52.525 58.8971 52.335 58.7271 52.195C58.5571 52.055 58.3421 51.955 58.0821 51.895C57.8321 51.825 57.4721 51.75 57.0021 51.67C56.3621 51.57 55.8371 51.455 55.4271 51.325C55.0271 51.195 54.6821 50.975 54.3921 50.665C54.1021 50.355 53.9571 49.92 53.9571 49.36C53.9571 48.64 54.2571 48.065 54.8571 47.635C55.4571 47.195 56.2621 46.975 57.2721 46.975C57.8021 46.975 58.3321 47.04 58.8621 47.17C59.3921 47.3 59.8271 47.475 60.1671 47.695L59.5521 48.835C58.9021 48.415 58.1371 48.205 57.2571 48.205C56.6471 48.205 56.1821 48.305 55.8621 48.505C55.5421 48.705 55.3821 48.97 55.3821 49.3C55.3821 49.56 55.4721 49.765 55.6521 49.915C55.8321 50.065 56.0521 50.175 56.3121 50.245C56.5821 50.315 56.9571 50.395 57.4371 50.485C58.0771 50.595 58.5921 50.715 58.9821 50.845C59.3821 50.965 59.7221 51.175 60.0021 51.475C60.2821 51.775 60.4221 52.195 60.4221 52.735C60.4221 53.455 60.1121 54.03 59.4921 54.46C58.8821 54.88 58.0471 55.09 56.9871 55.09Z" fill="black"/>
</g>
</svg>
