<svg width="61" height="59" viewBox="0 0 61 59" fill="none" xmlns="http://www.w3.org/2000/svg">
<path d="M51.7339 7.24465H9.26611C7.45825 7.24465 6 5.77793 6 3.97859C6 2.17073 7.46677 0.712479 9.26611 0.712479H51.7339C53.5418 0.712479 55 2.17925 55 3.97859C55 5.77793 53.5418 7.24465 51.7339 7.24465Z" fill="#74DB97"/>
<path d="M51.7339 21.4688H9.26611C7.45825 21.4688 6 20.0021 6 18.2028C6 16.3949 7.46677 14.9366 9.26611 14.9366H51.7339C53.5418 14.9366 55 16.4034 55 18.2028C55 20.0106 53.5418 21.4688 51.7339 21.4688Z" fill="#74DB97"/>
<path d="M51.7339 35.7015H9.26611C7.45825 35.7015 6 34.2348 6 32.4354C6 30.6276 7.46677 29.1693 9.26611 29.1693H51.7339C53.5418 29.1693 55 30.6361 55 32.4354C55 34.2348 53.5418 35.7015 51.7339 35.7015Z" fill="#74DB97"/>
<path d="M4.77823 54.92C3.98823 54.92 3.22323 54.8 2.48323 54.56C1.75323 54.31 1.17823 53.99 0.758229 53.6L1.31323 52.43C1.71323 52.79 2.22323 53.085 2.84323 53.315C3.47323 53.535 4.11823 53.645 4.77823 53.645C5.64823 53.645 6.29823 53.5 6.72823 53.21C7.15823 52.91 7.37323 52.515 7.37323 52.025C7.37323 51.665 7.25323 51.375 7.01323 51.155C6.78323 50.925 6.49323 50.75 6.14323 50.63C5.80323 50.51 5.31823 50.375 4.68823 50.225C3.89823 50.035 3.25823 49.845 2.76823 49.655C2.28823 49.465 1.87323 49.175 1.52323 48.785C1.18323 48.385 1.01323 47.85 1.01323 47.18C1.01323 46.62 1.15823 46.115 1.44823 45.665C1.74823 45.215 2.19823 44.855 2.79823 44.585C3.39823 44.315 4.14323 44.18 5.03323 44.18C5.65323 44.18 6.26323 44.26 6.86323 44.42C7.46323 44.58 7.97823 44.81 8.40823 45.11L7.91323 46.31C7.47323 46.03 7.00323 45.82 6.50323 45.68C6.00323 45.53 5.51323 45.455 5.03323 45.455C4.18323 45.455 3.54323 45.61 3.11323 45.92C2.69323 46.23 2.48323 46.63 2.48323 47.12C2.48323 47.48 2.60323 47.775 2.84323 48.005C3.08323 48.225 3.37823 48.4 3.72823 48.53C4.08823 48.65 4.57323 48.78 5.18323 48.92C5.97323 49.11 6.60823 49.3 7.08823 49.49C7.56823 49.68 7.97823 49.97 8.31823 50.36C8.66823 50.75 8.84323 51.275 8.84323 51.935C8.84323 52.485 8.69323 52.99 8.39323 53.45C8.09323 53.9 7.63823 54.26 7.02823 54.53C6.41823 54.79 5.66823 54.92 4.77823 54.92ZM17.6763 50.87C17.6763 50.98 17.6663 51.125 17.6463 51.305H11.1963C11.2863 52.005 11.5913 52.57 12.1113 53C12.6413 53.42 13.2963 53.63 14.0763 53.63C15.0263 53.63 15.7913 53.31 16.3713 52.67L17.1663 53.6C16.8063 54.02 16.3563 54.34 15.8163 54.56C15.2863 54.78 14.6913 54.89 14.0313 54.89C13.1913 54.89 12.4463 54.72 11.7963 54.38C11.1463 54.03 10.6413 53.545 10.2813 52.925C9.9313 52.305 9.7563 51.605 9.7563 50.825C9.7563 50.055 9.9263 49.36 10.2663 48.74C10.6163 48.12 11.0913 47.64 11.6913 47.3C12.3013 46.95 12.9863 46.775 13.7463 46.775C14.5063 46.775 15.1813 46.95 15.7713 47.3C16.3713 47.64 16.8363 48.12 17.1663 48.74C17.5063 49.36 17.6763 50.07 17.6763 50.87ZM13.7463 47.99C13.0563 47.99 12.4763 48.2 12.0063 48.62C11.5463 49.04 11.2763 49.59 11.1963 50.27H16.2963C16.2163 49.6 15.9413 49.055 15.4713 48.635C15.0113 48.205 14.4363 47.99 13.7463 47.99ZM23.8125 54.335C23.6025 54.515 23.3425 54.655 23.0325 54.755C22.7225 54.845 22.4025 54.89 22.0725 54.89C21.2725 54.89 20.6525 54.675 20.2125 54.245C19.7725 53.815 19.5525 53.2 19.5525 52.4V48.035H18.2025V46.85H19.5525V45.11H20.9925V46.85H23.2725V48.035H20.9925V52.34C20.9925 52.77 21.0975 53.1 21.3075 53.33C21.5275 53.56 21.8375 53.675 22.2375 53.675C22.6775 53.675 23.0525 53.55 23.3625 53.3L23.8125 54.335ZM29.4997 54.335C29.2897 54.515 29.0297 54.655 28.7197 54.755C28.4097 54.845 28.0897 54.89 27.7597 54.89C26.9597 54.89 26.3397 54.675 25.8997 54.245C25.4597 53.815 25.2397 53.2 25.2397 52.4V48.035H23.8897V46.85H25.2397V45.11H26.6797V46.85H28.9597V48.035H26.6797V52.34C26.6797 52.77 26.7847 53.1 26.9947 53.33C27.2147 53.56 27.5247 53.675 27.9247 53.675C28.3647 53.675 28.7397 53.55 29.0497 53.3L29.4997 54.335ZM30.9073 46.85H32.3473V54.8H30.9073V46.85ZM31.6273 45.32C31.3473 45.32 31.1123 45.23 30.9223 45.05C30.7423 44.87 30.6523 44.65 30.6523 44.39C30.6523 44.13 30.7423 43.91 30.9223 43.73C31.1123 43.54 31.3473 43.445 31.6273 43.445C31.9073 43.445 32.1373 43.535 32.3173 43.715C32.5073 43.885 32.6023 44.1 32.6023 44.36C32.6023 44.63 32.5073 44.86 32.3173 45.05C32.1373 45.23 31.9073 45.32 31.6273 45.32ZM39.0084 46.775C40.0184 46.775 40.8184 47.07 41.4084 47.66C42.0084 48.24 42.3084 49.095 42.3084 50.225V54.8H40.8684V50.39C40.8684 49.62 40.6834 49.04 40.3134 48.65C39.9434 48.26 39.4134 48.065 38.7234 48.065C37.9434 48.065 37.3284 48.295 36.8784 48.755C36.4284 49.205 36.2034 49.855 36.2034 50.705V54.8H34.7634V46.85H36.1434V48.05C36.4334 47.64 36.8234 47.325 37.3134 47.105C37.8134 46.885 38.3784 46.775 39.0084 46.775ZM52.289 46.85V53.72C52.289 55.11 51.944 56.135 51.254 56.795C50.564 57.465 49.534 57.8 48.164 57.8C47.414 57.8 46.699 57.695 46.019 57.485C45.339 57.285 44.789 56.995 44.369 56.615L45.059 55.505C45.429 55.825 45.884 56.075 46.424 56.255C46.974 56.445 47.539 56.54 48.119 56.54C49.049 56.54 49.734 56.32 50.174 55.88C50.624 55.44 50.849 54.77 50.849 53.87V53.24C50.509 53.65 50.089 53.96 49.589 54.17C49.099 54.37 48.564 54.47 47.984 54.47C47.224 54.47 46.534 54.31 45.914 53.99C45.304 53.66 44.824 53.205 44.474 52.625C44.124 52.035 43.949 51.365 43.949 50.615C43.949 49.865 44.124 49.2 44.474 48.62C44.824 48.03 45.304 47.575 45.914 47.255C46.534 46.935 47.224 46.775 47.984 46.775C48.584 46.775 49.139 46.885 49.649 47.105C50.169 47.325 50.594 47.65 50.924 48.08V46.85H52.289ZM48.149 53.21C48.669 53.21 49.134 53.1 49.544 52.88C49.964 52.66 50.289 52.355 50.519 51.965C50.759 51.565 50.879 51.115 50.879 50.615C50.879 49.845 50.624 49.225 50.114 48.755C49.604 48.275 48.949 48.035 48.149 48.035C47.339 48.035 46.679 48.275 46.169 48.755C45.659 49.225 45.404 49.845 45.404 50.615C45.404 51.115 45.519 51.565 45.749 51.965C45.989 52.355 46.314 52.66 46.724 52.88C47.144 53.1 47.619 53.21 48.149 53.21ZM56.9871 54.89C56.3371 54.89 55.7121 54.805 55.1121 54.635C54.5121 54.455 54.0421 54.23 53.7021 53.96L54.3021 52.82C54.6521 53.07 55.0771 53.27 55.5771 53.42C56.0771 53.57 56.5821 53.645 57.0921 53.645C58.3521 53.645 58.9821 53.285 58.9821 52.565C58.9821 52.325 58.8971 52.135 58.7271 51.995C58.5571 51.855 58.3421 51.755 58.0821 51.695C57.8321 51.625 57.4721 51.55 57.0021 51.47C56.3621 51.37 55.8371 51.255 55.4271 51.125C55.0271 50.995 54.6821 50.775 54.3921 50.465C54.1021 50.155 53.9571 49.72 53.9571 49.16C53.9571 48.44 54.2571 47.865 54.8571 47.435C55.4571 46.995 56.2621 46.775 57.2721 46.775C57.8021 46.775 58.3321 46.84 58.8621 46.97C59.3921 47.1 59.8271 47.275 60.1671 47.495L59.5521 48.635C58.9021 48.215 58.1371 48.005 57.2571 48.005C56.6471 48.005 56.1821 48.105 55.8621 48.305C55.5421 48.505 55.3821 48.77 55.3821 49.1C55.3821 49.36 55.4721 49.565 55.6521 49.715C55.8321 49.865 56.0521 49.975 56.3121 50.045C56.5821 50.115 56.9571 50.195 57.4371 50.285C58.0771 50.395 58.5921 50.515 58.9821 50.645C59.3821 50.765 59.7221 50.975 60.0021 51.275C60.2821 51.575 60.4221 51.995 60.4221 52.535C60.4221 53.255 60.1121 53.83 59.4921 54.26C58.8821 54.68 58.0471 54.89 56.9871 54.89Z" fill="#74DB97"/>
</svg>
