<svg width="44" height="43" viewBox="0 0 44 43" fill="none" xmlns="http://www.w3.org/2000/svg">
<path d="M11.2059 36.08C10.6792 36.08 10.1692 36 9.67589 35.84C9.18922 35.6733 8.80589 35.46 8.52589 35.2L8.89589 34.42C9.16255 34.66 9.50255 34.8567 9.91589 35.01C10.3359 35.1567 10.7659 35.23 11.2059 35.23C11.7859 35.23 12.2192 35.1333 12.5059 34.94C12.7926 34.74 12.9359 34.4767 12.9359 34.15C12.9359 33.91 12.8559 33.7167 12.6959 33.57C12.5426 33.4167 12.3492 33.3 12.1159 33.22C11.8892 33.14 11.5659 33.05 11.1459 32.95C10.6192 32.8233 10.1926 32.6967 9.86589 32.57C9.54589 32.4433 9.26922 32.25 9.03589 31.99C8.80922 31.7233 8.69589 31.3667 8.69589 30.92C8.69589 30.5467 8.79255 30.21 8.98589 29.91C9.18589 29.61 9.48589 29.37 9.88589 29.19C10.2859 29.01 10.7826 28.92 11.3759 28.92C11.7892 28.92 12.1959 28.9733 12.5959 29.08C12.9959 29.1867 13.3392 29.34 13.6259 29.54L13.2959 30.34C13.0026 30.1533 12.6892 30.0133 12.3559 29.92C12.0226 29.82 11.6959 29.77 11.3759 29.77C10.8092 29.77 10.3826 29.8733 10.0959 30.08C9.81589 30.2867 9.67589 30.5533 9.67589 30.88C9.67589 31.12 9.75589 31.3167 9.91589 31.47C10.0759 31.6167 10.2726 31.7333 10.5059 31.82C10.7459 31.9 11.0692 31.9867 11.4759 32.08C12.0026 32.2067 12.4259 32.3333 12.7459 32.46C13.0659 32.5867 13.3392 32.78 13.5659 33.04C13.7992 33.3 13.9159 33.65 13.9159 34.09C13.9159 34.4567 13.8159 34.7933 13.6159 35.1C13.4159 35.4 13.1126 35.64 12.7059 35.82C12.2992 35.9933 11.7992 36.08 11.2059 36.08ZM17.7335 30.65C18.4068 30.65 18.9402 30.8467 19.3335 31.24C19.7335 31.6267 19.9335 32.1967 19.9335 32.95V36H18.9735V33.06C18.9735 32.5467 18.8502 32.16 18.6035 31.9C18.3568 31.64 18.0035 31.51 17.5435 31.51C17.0235 31.51 16.6135 31.6633 16.3135 31.97C16.0135 32.27 15.8635 32.7033 15.8635 33.27V36H14.9035V28.58H15.8635V31.45C16.0635 31.1967 16.3235 31 16.6435 30.86C16.9702 30.72 17.3335 30.65 17.7335 30.65ZM23.3068 30.65C24.0401 30.65 24.6001 30.83 24.9868 31.19C25.3801 31.55 25.5768 32.0867 25.5768 32.8V36H24.6668V35.3C24.5068 35.5467 24.2768 35.7367 23.9768 35.87C23.6835 35.9967 23.3335 36.06 22.9268 36.06C22.3335 36.06 21.8568 35.9167 21.4968 35.63C21.1435 35.3433 20.9668 34.9667 20.9668 34.5C20.9668 34.0333 21.1368 33.66 21.4768 33.38C21.8168 33.0933 22.3568 32.95 23.0968 32.95H24.6168V32.76C24.6168 32.3467 24.4968 32.03 24.2568 31.81C24.0168 31.59 23.6635 31.48 23.1968 31.48C22.8835 31.48 22.5768 31.5333 22.2768 31.64C21.9768 31.74 21.7235 31.8767 21.5168 32.05L21.1168 31.33C21.3901 31.11 21.7168 30.9433 22.0968 30.83C22.4768 30.71 22.8801 30.65 23.3068 30.65ZM23.0868 35.32C23.4535 35.32 23.7701 35.24 24.0368 35.08C24.3035 34.9133 24.4968 34.68 24.6168 34.38V33.64H23.1368C22.3235 33.64 21.9168 33.9133 21.9168 34.46C21.9168 34.7267 22.0201 34.9367 22.2268 35.09C22.4335 35.2433 22.7201 35.32 23.0868 35.32ZM27.94 31.59C28.1067 31.2833 28.3534 31.05 28.68 30.89C29.0067 30.73 29.4034 30.65 29.87 30.65V31.58C29.8167 31.5733 29.7434 31.57 29.65 31.57C29.13 31.57 28.72 31.7267 28.42 32.04C28.1267 32.3467 27.98 32.7867 27.98 33.36V36H27.02V30.7H27.94V31.59ZM35.4611 33.38C35.4611 33.4533 35.4544 33.55 35.4411 33.67H31.1411C31.2011 34.1367 31.4044 34.5133 31.7511 34.8C32.1044 35.08 32.5411 35.22 33.0611 35.22C33.6944 35.22 34.2044 35.0067 34.5911 34.58L35.1211 35.2C34.8811 35.48 34.5811 35.6933 34.2211 35.84C33.8677 35.9867 33.4711 36.06 33.0311 36.06C32.4711 36.06 31.9744 35.9467 31.5411 35.72C31.1077 35.4867 30.7711 35.1633 30.5311 34.75C30.2977 34.3367 30.1811 33.87 30.1811 33.35C30.1811 32.8367 30.2944 32.3733 30.5211 31.96C30.7544 31.5467 31.0711 31.2267 31.4711 31C31.8777 30.7667 32.3344 30.65 32.8411 30.65C33.3477 30.65 33.7977 30.7667 34.1911 31C34.5911 31.2267 34.9011 31.5467 35.1211 31.96C35.3477 32.3733 35.4611 32.8467 35.4611 33.38ZM32.8411 31.46C32.3811 31.46 31.9944 31.6 31.6811 31.88C31.3744 32.16 31.1944 32.5267 31.1411 32.98H34.5411C34.4877 32.5333 34.3044 32.17 33.9911 31.89C33.6844 31.6033 33.3011 31.46 32.8411 31.46Z" fill="#74DB97"/>
<g clip-path="url(#clip0)">
<path d="M26.6242 16.0552C25.3168 17.4514 23.4986 18.3267 21.4799 18.3267C19.4613 18.3267 17.638 17.4514 16.3357 16.0552C14.1167 17.6077 12.6691 20.1346 12.6691 23H30.2958C30.2908 20.1398 28.8432 17.6129 26.6242 16.0552Z" fill="#74DB97"/>
<path d="M21.4799 15.7217C24.061 15.7217 26.1533 13.5454 26.1533 10.8609C26.1533 8.17628 24.061 6 21.4799 6C18.8989 6 16.8065 8.17628 16.8065 10.8609C16.8065 13.5454 18.8989 15.7217 21.4799 15.7217Z" fill="#74DB97"/>
<path d="M33.0758 16.399C35.3968 16.399 37.2783 14.442 37.2783 12.0279C37.2783 9.61376 35.3968 7.65674 33.0758 7.65674C30.7548 7.65674 28.8732 9.61376 28.8732 12.0279C28.8732 14.442 30.7548 16.399 33.0758 16.399Z" fill="#74DB97"/>
<path d="M9.92923 16.399C12.2502 16.399 14.1318 14.442 14.1318 12.0279C14.1318 9.61376 12.2502 7.65674 9.92923 7.65674C7.60823 7.65674 5.72668 9.61376 5.72668 12.0279C5.72668 14.442 7.60823 16.399 9.92923 16.399Z" fill="#74DB97"/>
<path d="M11.2716 18.8581C10.8359 18.9519 10.3901 19.004 9.92923 19.004C8.03082 19.004 6.31775 18.1756 5.09556 16.8523C3.21218 18.259 2 20.4628 2 22.9427H10.4502C10.4552 21.5048 10.7457 20.1293 11.2716 18.8581Z" fill="#74DB97"/>
<path d="M32.5047 22.9427H41C41 20.4575 39.7878 18.2589 37.9094 16.847C36.6872 18.1704 34.9742 18.9987 33.0758 18.9987C32.5949 18.9987 32.1291 18.9466 31.6833 18.8477C32.2092 20.1189 32.4997 21.5047 32.5047 22.9427Z" fill="#74DB97"/>
</g>
<defs>
<clipPath id="clip0">
<rect x="2" y="6" width="39" height="17" fill="white"/>
</clipPath>
</defs>
</svg>
