<svg width="40" height="22" viewBox="0 0 40 22" fill="none" xmlns="http://www.w3.org/2000/svg">
<path d="M39.5 19.15C39.5 15.04 35.93 11.7 31.53 11.7C27.13 11.7 23.56 15.03 23.56 19.15H39.5Z" fill="black"/>
<path d="M31.53 12.83C33.8662 12.83 35.76 10.9362 35.76 8.60001C35.76 6.26384 33.8662 4.37 31.53 4.37C29.1938 4.37 27.3 6.26384 27.3 8.60001C27.3 10.9362 29.1938 12.83 31.53 12.83Z" fill="black" stroke="white" stroke-width="5.0373" stroke-miterlimit="10"/>
<path d="M31.53 12.83C33.8662 12.83 35.76 10.9362 35.76 8.60001C35.76 6.26384 33.8662 4.37 31.53 4.37C29.1938 4.37 27.3 6.26384 27.3 8.60001C27.3 10.9362 29.1938 12.83 31.53 12.83Z" fill="black"/>
<path d="M16.22 19.21C16.22 15.1 12.65 11.76 8.25 11.76C3.85 11.76 0.279999 15.09 0.279999 19.21H16.22Z" fill="black"/>
<path d="M8.25 12.8801C10.5862 12.8801 12.48 10.9862 12.48 8.65004C12.48 6.31388 10.5862 4.42004 8.25 4.42004C5.91384 4.42004 4.02 6.31388 4.02 8.65004C4.02 10.9862 5.91384 12.8801 8.25 12.8801Z" fill="black" stroke="white" stroke-width="5.0373" stroke-miterlimit="10"/>
<path d="M8.25 12.8801C10.5862 12.8801 12.48 10.9862 12.48 8.65004C12.48 6.31388 10.5862 4.42004 8.25 4.42004C5.91384 4.42004 4.02 6.31388 4.02 8.65004C4.02 10.9862 5.91384 12.8801 8.25 12.8801Z" fill="black"/>
<path d="M28.44 19.21C28.44 14.79 24.6 11.2 19.87 11.2C15.14 11.2 11.3 14.79 11.3 19.21H28.44Z" fill="black"/>
<path d="M19.86 12.41C22.3729 12.41 24.41 10.3729 24.41 7.86C24.41 5.34711 22.3729 3.31 19.86 3.31C17.3471 3.31 15.31 5.34711 15.31 7.86C15.31 10.3729 17.3471 12.41 19.86 12.41Z" fill="black" stroke="white" stroke-width="5.0373" stroke-miterlimit="10"/>
<path d="M19.86 12.41C22.3729 12.41 24.41 10.3729 24.41 7.86C24.41 5.34711 22.3729 3.31 19.86 3.31C17.3471 3.31 15.31 5.34711 15.31 7.86C15.31 10.3729 17.3471 12.41 19.86 12.41Z" fill="black"/>
<path d="M22.47 11.58C23.64 10.76 24.41 9.4 24.41 7.86C24.41 5.35 22.37 3.31 19.86 3.31C17.35 3.31 15.31 5.35 15.31 7.86C15.31 9.4 16.08 10.76 17.25 11.58C13.79 12.61 11.28 15.64 11.28 19.21H28.43C28.44 15.64 25.93 12.61 22.47 11.58Z" fill="black" stroke="white" stroke-width="5.0373" stroke-miterlimit="10"/>
<path d="M28.73 19.21C28.73 14.64 24.76 10.93 19.87 10.93C14.98 10.93 11 14.64 11 19.21H28.73Z" fill="black"/>
<path d="M19.86 12.17C22.4557 12.17 24.56 10.0658 24.56 7.47002C24.56 4.87428 22.4557 2.77002 19.86 2.77002C17.2643 2.77002 15.16 4.87428 15.16 7.47002C15.16 10.0658 17.2643 12.17 19.86 12.17Z" fill="black" stroke="white" stroke-width="5.0373" stroke-miterlimit="10"/>
<path d="M19.86 12.17C22.4557 12.17 24.56 10.0658 24.56 7.47002C24.56 4.87428 22.4557 2.77002 19.86 2.77002C17.2643 2.77002 15.16 4.87428 15.16 7.47002C15.16 10.0658 17.2643 12.17 19.86 12.17Z" fill="black"/>
</svg>
